<svg width="190" height="40" viewBox="0 0 190 40" fill="none" xmlns="http://www.w3.org/2000/svg">
<path d="M19.1481 34.882C14.9906 34.882 11.6741 33.9427 9.19699 32.0626C6.71988 30.184 5.42648 27.4173 5.31984 23.764H12.3383C12.4602 25.462 13.1396 26.7384 14.3751 27.5949C15.6091 28.4515 17.1707 28.879 19.0582 28.879C20.9457 28.879 22.3747 28.4921 23.4868 27.7199C24.5989 26.9462 25.155 25.9391 25.155 24.6958C25.155 23.5593 24.6492 22.6832 23.6361 22.0705C22.623 21.4564 21.1819 20.9295 19.3111 20.49L15.5604 19.5808C12.6765 18.8989 10.402 17.8121 8.73843 16.3188C7.07332 14.8256 6.24152 12.8296 6.24152 10.3278C6.24152 8.28211 6.80062 6.48932 7.92187 4.95091C9.0416 3.41251 10.5787 2.21581 12.5348 1.3593C14.4894 0.502788 16.7167 0.0752869 19.2182 0.0752869C21.7196 0.0752869 23.988 0.507304 25.8908 1.37134C27.7921 2.23537 29.2774 3.43208 30.3438 4.96295C31.4102 6.49383 31.9587 8.25953 31.9891 10.2601H24.995C24.8716 8.94143 24.3049 7.91031 23.2918 7.1682C22.2787 6.42609 20.9061 6.05429 19.1725 6.05429C17.4388 6.05429 16.0509 6.41405 15.1003 7.13358C14.1497 7.85311 13.6744 8.76682 13.6744 9.8732C13.6744 11.0699 14.203 11.9761 15.2618 12.5902C16.3206 13.2044 17.5926 13.6861 19.081 14.0338L22.1416 14.7834C24.1358 15.223 25.9076 15.8627 27.4569 16.7042C29.0062 17.5457 30.225 18.6219 31.1147 19.933C32.0044 21.2441 32.4492 22.8397 32.4492 24.7183C32.4492 27.8253 31.2762 30.2969 28.9285 32.1304C26.5809 33.9638 23.3223 34.882 19.1496 34.882H19.1481Z" fill="url(#paint0_linear_726_20)"/>
<path d="M54.9732 22.4469V34.4049H47.7719V22.4469L35.2554 0.529877H43.4012L51.2012 15.1251H51.547L59.3683 0.529877H67.4898" fill="url(#paint1_linear_726_20)"/>
<path d="M100.117 0.529877V34.4049H93.8361L78.9491 13.102H78.6733V34.4049H71.4492V0.529877H77.8004L92.5945 21.8327H92.8931V0.529877H100.117Z" fill="url(#paint2_linear_726_20)"/>
<path d="M121.424 34.8595C118.371 34.8595 115.641 34.1776 113.232 32.8138C110.824 31.45 108.926 29.472 107.538 26.8799C106.15 24.2878 105.455 21.1583 105.455 17.49C105.455 13.8216 106.158 10.6469 107.561 8.05481C108.964 5.46271 110.874 3.48476 113.29 2.12097C115.707 0.757182 118.417 0.0752869 121.424 0.0752869C124.078 0.0752869 126.467 0.559989 128.592 1.5309C130.715 2.5003 132.454 3.90323 133.803 5.73667C135.153 7.57011 135.982 9.79192 136.288 12.3976H128.971C128.695 10.534 127.889 9.06637 126.555 7.99761C125.22 6.92886 123.564 6.39448 121.585 6.39448C118.947 6.39448 116.823 7.36088 115.211 9.29367C113.601 11.2265 112.795 13.9586 112.795 17.49C112.795 21.0214 113.604 23.8408 115.222 25.7194C116.84 27.5995 118.953 28.5388 121.561 28.5388C123.479 28.5388 125.108 28.039 126.45 27.038C127.792 26.037 128.631 24.6356 128.97 22.8322H136.287C136.026 24.9095 135.278 26.8649 134.043 28.6983C132.807 30.5318 131.128 32.0175 129.003 33.154C126.878 34.2905 124.352 34.8595 121.421 34.8595H121.424Z" fill="url(#paint3_linear_726_20)"/>
<path d="M157.502 15.6941L170.364 34.4049H161.667L152.303 20.4915L148.736 24.7891V34.4064H141.512V0.529877H148.736V15.4668H149.173L161.528 0.529877H170.203" fill="url(#paint4_linear_726_20)"/>
<path d="M33.7457 30.7803C33.5888 31.277 33.3999 31.7422 33.1805 32.1772C32.9596 32.6122 32.693 33.0472 32.3792 33.4808C32.0958 33.7607 31.5931 34.1024 30.871 34.5044C30.1474 34.9078 29.3156 35.3278 28.3741 35.7613C27.4311 36.1963 26.4804 36.6223 25.5237 37.0423C24.5655 37.4607 23.7245 37.8265 23.0024 38.1366C22.2788 38.4467 21.7776 38.68 21.4942 38.8351C21.0235 38.9585 20.3395 39.0594 19.4437 39.1376C18.5479 39.2144 17.6537 39.2611 16.7579 39.2776C15.8621 39.2927 15.1796 39.2852 14.7073 39.255C14.0157 39.1918 13.2768 39.1151 12.4922 39.0217C11.7062 38.9284 10.9521 38.7884 10.2299 38.6033C9.7592 38.385 9.06756 38.0674 8.15655 37.6489C7.24553 37.2304 6.33452 36.7713 5.4235 36.2761C4.51249 35.7793 3.82084 35.2976 3.3501 34.8325C2.62647 34.0573 2.04604 33.1722 1.60729 32.1787C1.29346 31.4652 1.06495 30.6809 0.924791 29.8274C0.783112 28.9739 0.61858 28.2062 0.429674 27.5228C0.303229 27.0261 0.185924 26.5384 0.076237 26.0567C-0.0334504 25.5765 -0.0258332 25.0873 0.0990886 24.5905C0.0990886 24.4355 0.129557 24.2639 0.193542 24.0787C0.22401 24.017 0.271237 23.9553 0.335221 23.8921C0.397682 23.8304 0.444909 23.7837 0.476901 23.7521C0.539362 23.6904 0.60944 23.6046 0.688659 23.4962C0.766354 23.3878 0.837955 23.3186 0.900416 23.287C1.05733 23.1635 1.25385 23.0702 1.48999 23.007C1.72612 22.9453 1.93788 22.8835 2.12678 22.8203C2.18924 22.7586 2.30655 22.7044 2.48022 22.6577C2.65237 22.6111 2.75444 22.5569 2.78643 22.4952C2.8169 22.4651 2.83366 22.3868 2.83366 22.2619C2.89612 22.1384 2.94335 22.0135 2.97534 21.8901C3.00581 21.7666 3.02256 21.6417 3.02256 21.5182C3.02256 21.3948 2.99057 21.2548 2.92811 21.0998C2.86413 20.9447 2.80167 20.8047 2.7392 20.6813C2.45585 19.9994 2.22124 19.3311 2.03233 18.6793C1.90588 18.2442 1.80381 17.8032 1.72612 17.3516C1.6469 16.9015 1.54483 16.4755 1.41991 16.0706C1.29346 15.5121 1.15331 14.9462 0.996393 14.3711C0.839479 13.7976 0.729791 13.2151 0.665807 12.625C0.571354 11.9115 0.563737 11.0731 0.642955 10.1112C0.720651 9.1493 0.917174 8.32591 1.23253 7.64401C1.54635 7.30231 2.04147 6.82965 2.71635 6.22453C3.39124 5.6194 4.12249 4.98266 4.90705 4.31582C5.69163 3.64898 6.43811 3.03482 7.14498 2.47636C7.85186 1.9179 8.37744 1.49792 8.72326 1.21945C9.36768 1.02677 10.2421 0.791944 11.2918 0.590236C11.7671 0.498413 13.0133 0.27262 15.6046 0.122091C16.863 0.0483321 20.0927 -0.139829 20.1429 0.210903C20.181 0.472823 18.4047 0.764849 18.4321 1.17128C18.4535 1.48889 19.5686 1.43019 21.7304 2.10305C22.8303 2.44475 23.8038 2.78645 24.6523 3.12664C25.5009 3.46834 26.0661 3.77843 26.3494 4.05842C26.7257 4.40012 27.0868 4.7644 27.4326 5.15276C27.7784 5.54113 28.0922 5.95207 28.3756 6.3871C28.659 6.82213 28.9179 7.27973 29.1525 7.76142C29.2942 8.05194 29.4511 8.33494 29.6218 8.6074C29.6599 8.66911 29.8472 8.96716 29.9767 9.13425C30.5709 9.89893 31.3219 9.6325 31.7942 10.2376C32.1598 10.7073 31.7942 10.9722 32.1811 11.8392C32.5041 12.5603 32.8332 12.5437 33.019 13.0766C33.3938 14.1544 32.4767 15.464 32.37 15.4248C32.3259 15.4083 32.3518 15.1343 32.7555 13.7901C32.7859 13.915 32.8103 14.0309 32.8256 14.1393C32.8408 14.2477 32.8484 14.3486 32.8484 14.4419C32.8164 14.5668 32.7783 14.6903 32.7311 14.8137C32.6839 14.9386 32.6443 15.047 32.6138 15.1403C32.5818 15.172 32.5666 15.2096 32.5666 15.2562C32.5666 15.3029 32.5498 15.3421 32.5193 15.3722C32.4249 15.4655 32.3152 15.5438 32.1888 15.6055C32.0943 15.6687 32.0075 15.7304 31.9298 15.7921C31.8506 15.8554 31.7652 15.9171 31.6708 15.9788C31.5139 16.042 31.3478 16.0872 31.1757 16.1188C31.002 16.1504 30.8375 16.2121 30.6806 16.3054C30.6166 16.337 30.5541 16.3837 30.4916 16.4454C30.4277 16.5086 30.3652 16.5704 30.3027 16.6321C30.2708 16.6637 30.2083 16.7104 30.1138 16.7721C30.0194 16.8353 29.9402 16.897 29.8777 16.9587C29.8457 17.022 29.8305 17.1062 29.8305 17.2146V17.4705L29.7833 17.9823C29.8137 18.1991 29.8929 18.4249 30.0194 18.6567C30.1443 18.89 30.2555 19.1143 30.35 19.3311C30.6958 19.8895 31.0645 20.4254 31.4575 20.9372C31.8506 21.449 32.2345 21.9698 32.6123 22.4967C32.9581 22.8384 33.2552 23.3893 33.5081 24.1495C33.7594 24.9112 33.9392 25.7331 34.0504 26.6167C34.1601 27.5018 34.1997 28.3237 34.1677 29.0838C34.1357 29.8455 33.994 30.4115 33.7442 30.7833L33.7457 30.7803ZM11.2689 26.1244C10.7982 25.9378 10.169 25.8219 9.38444 25.7752C8.59834 25.7285 7.81377 25.7135 7.02768 25.7285C6.24159 25.7451 5.61393 25.7511 5.14319 25.7511C4.7669 25.7511 4.38147 25.7586 3.98842 25.7737C3.59538 25.7903 3.2267 25.8279 2.88088 25.8896L2.26846 26.0296C1.57682 26.3397 1.15331 26.8364 0.996393 27.5198C0.964401 27.583 0.956783 27.6598 0.973541 27.7531C0.988776 27.8465 0.996393 27.9247 0.996393 27.9865C0.996393 28.6081 1.13807 29.1967 1.41991 29.7552C1.54483 30.0352 1.67889 30.3136 1.82057 30.5936C1.96225 30.8736 2.12678 31.137 2.31569 31.3854C2.78643 31.8505 3.44608 32.3638 4.29463 32.9223C5.14319 33.4808 5.9826 34.0091 6.81592 34.5059C7.64772 35.0026 8.29975 35.391 8.77201 35.6695C9.46213 35.8862 10.1629 36.0578 10.8683 36.1812C11.5736 36.3047 12.2744 36.4146 12.9645 36.5079C14.0644 36.6012 15.1476 36.6479 16.2155 36.6479C17.0945 36.6479 18.0056 36.6012 18.9486 36.5079C19.2319 36.383 19.7804 36.0819 20.5985 35.6002C21.415 35.12 22.358 34.545 23.426 33.8782C24.4939 33.2113 25.5694 32.5204 26.6541 31.8069C27.7373 31.0934 28.6879 30.4491 29.5045 29.8741C30.321 29.3006 30.871 28.8731 31.1543 28.5931C31.4057 28.2514 31.5002 27.6387 31.4377 26.7536C31.3737 25.8685 31.2168 24.9066 30.967 23.8665C30.7156 22.8263 30.4018 21.8645 30.024 20.9794C29.6477 20.0942 29.2851 19.4816 28.9408 19.1399C28.3116 18.5513 27.5895 18.0772 26.7729 17.7204C25.9564 17.3637 25.1855 17.046 24.4634 16.7661C23.9927 16.5493 23.4107 16.3777 22.7206 16.2543C22.029 16.1308 21.3297 16.0149 20.6244 15.905C19.9175 15.7966 19.3279 15.6958 18.8572 15.6025C18.3864 15.5407 17.9065 15.4625 17.4206 15.3691C16.9331 15.2758 16.4699 15.1674 16.0297 15.0425C15.9032 14.9808 15.7539 14.9191 15.5818 14.8558C15.4081 14.7941 15.2588 14.7159 15.1339 14.6225C15.0699 14.5608 15.0166 14.4901 14.9694 14.4133C14.9221 14.3365 14.8673 14.2823 14.8048 14.2507C14.7728 14.189 14.718 14.1183 14.6403 14.0415C14.5611 13.9647 14.5062 13.909 14.4758 13.8789C14.4438 13.8172 14.4438 13.7314 14.4758 13.623C14.5062 13.5146 14.5382 13.4288 14.5702 13.3671V13.1338C14.5702 13.0405 14.5854 12.9788 14.6174 12.9471C14.6494 12.9155 14.7043 12.8854 14.782 12.8538C14.8597 12.8237 14.9145 12.7921 14.9465 12.7605C15.1979 12.6054 15.4797 12.5121 15.7951 12.4805C15.5589 12.5768 15.3213 12.6717 15.0851 12.768C15.3395 12.4173 15.8149 11.8633 16.5842 11.4599C17.5729 10.9421 18.4931 10.9632 19.2045 10.9797C20.1049 11.0008 20.9885 11.0128 21.8736 11.5578C22.9933 12.2472 23.8449 13.6155 23.5128 14.1152C23.4473 14.2146 23.3437 14.2658 23.2569 14.2959C23.4671 14.341 23.624 14.3922 23.621 14.4434C23.6179 14.5352 23.0954 14.6361 23.074 14.5774C23.042 14.4931 24.0353 14.1393 24.1922 14.2357C24.2928 14.2974 24.3233 14.3892 24.3233 14.3892C24.468 14.624 21.2688 14.1408 22.7694 13.8322H26.3037C26.712 13.8322 27.1279 13.8247 27.5529 13.8097C27.9765 13.7946 28.3924 13.7239 28.8022 13.6004C28.8966 13.5703 28.9987 13.5387 29.1084 13.5071C29.2181 13.477 29.3049 13.4454 29.3674 13.4138C29.4298 13.3521 29.4923 13.2828 29.5563 13.2045C29.6187 13.1278 29.6659 13.0721 29.6979 13.042C29.7604 12.9803 29.8229 12.9185 29.8868 12.8553C29.9493 12.7936 29.9965 12.7319 30.0285 12.6687C30.059 12.6069 30.0758 12.5287 30.0758 12.4353C30.0758 12.342 30.091 12.2652 30.123 12.202C30.123 12.1087 30.1306 12.0154 30.1458 11.922C30.1611 11.8287 30.1687 11.7519 30.1687 11.6887C30.1687 11.5954 30.1519 11.5021 30.1215 11.4087C30.0895 11.3154 30.0742 11.2386 30.0742 11.1754C29.8853 10.4935 29.5715 9.82517 29.1312 9.17338C28.9743 8.92501 28.7549 8.64653 28.4716 8.33494C28.1577 7.96313 27.8195 7.60638 27.4585 7.26468C27.0974 6.92298 26.6968 6.59784 26.2565 6.28624C25.9731 6.00626 25.2983 5.7037 24.2303 5.37855C23.1624 5.05191 21.9132 4.74332 20.4842 4.44678C19.0537 4.15175 17.6247 3.9109 16.1957 3.72575C14.7652 3.53909 13.5175 3.44577 12.4496 3.44577C11.3817 3.44577 10.7068 3.58576 10.4234 3.86424C10.0776 4.11261 9.49717 4.56269 8.68061 5.21448C7.86405 5.86627 6.97588 6.59633 6.01764 7.40317C5.0594 8.21 4.18647 8.97167 3.4019 9.68518C2.61581 10.4002 2.0826 10.927 1.79924 11.2687C1.6728 11.7038 1.58749 12.1539 1.54026 12.619C1.49303 13.0841 1.47018 13.5508 1.47018 14.0159C1.47018 14.3576 1.49303 14.6993 1.54026 15.0395C1.58749 15.3812 1.64233 15.7229 1.70479 16.0631C1.79924 16.5914 1.97139 17.1333 2.22276 17.6933C2.56858 18.035 3.15663 18.5001 3.98995 19.0902C4.82174 19.6803 5.73276 20.2929 6.72299 20.9297C8.24033 21.9051 9.00205 22.4079 9.45604 22.6291C10.6276 23.2012 11.665 23.4826 12.3414 23.6287C16.4882 24.8991 17.4434 25.7466 17.3931 26.3111C17.3353 26.9568 15.955 27.3497 15.2862 27.4581C13.1595 27.8028 11.534 26.3608 11.2705 26.1199L11.2689 26.1244Z" fill="url(#paint5_linear_726_20)"/>
<path d="M64.9883 6.24243C65.0188 6.36737 65.0508 6.4592 65.0827 6.52242C65.2077 6.61575 65.2869 6.74068 65.3189 6.89422C65.3189 6.95745 65.3021 7.03421 65.2717 7.12754C65.2397 7.22087 65.2244 7.29915 65.2244 7.36086C65.1924 7.67095 65.1071 7.98255 64.9654 8.29264C64.8238 8.60272 64.6592 8.94442 64.4703 9.31623M54.0622 25.2166C54.8498 26.9717 55.022 28.3521 55.022 29.314C55.022 29.8965 54.9488 30.458 54.9747 31.8519C54.99 32.6903 54.9976 33.3421 54.9976 33.8073C54.9976 34.3657 54.9808 34.9483 54.9504 35.5534C54.9184 36.1585 54.7615 36.7245 54.4796 37.2529C54.3532 37.4696 54.1963 37.6789 54.0089 37.8821C53.82 38.0838 53.6158 38.278 53.3965 38.4646C53.0826 38.713 52.752 38.9448 52.4062 39.1631C52.0604 39.3798 51.7146 39.5514 51.3703 39.6749C50.962 39.7983 50.5461 39.8841 50.1211 39.9308C49.6976 39.9774 49.2801 40 48.8719 40H44.4188C43.9009 40 43.4058 39.9217 42.935 39.7667C42.8406 39.7035 42.7309 39.6583 42.6044 39.6267C42.478 39.5951 42.3835 39.5635 42.3211 39.5334C42.2571 39.5018 42.2038 39.4551 42.1565 39.3934C42.1093 39.3302 42.0545 39.285 41.992 39.2534L41.5213 38.8349C41.4893 38.7717 41.4573 38.6949 41.4268 38.6016C41.3948 38.5083 41.3628 38.43 41.3324 38.3683C41.2059 37.9965 41.1282 37.6156 41.0962 37.2273C41.0642 36.8389 41.017 36.443 40.9546 36.0396C40.8906 35.3577 40.7809 34.6743 40.624 33.9909C40.4671 33.309 40.3406 32.6256 40.2477 31.9422C40.2157 31.4455 40.1928 30.9487 40.1776 30.452C40.1608 29.9552 40.1228 29.4585 40.0603 28.9617C39.9963 28.4966 39.8318 27.8674 39.5652 27.0756C39.2986 26.2838 38.9924 25.492 38.6465 24.7003C38.3007 23.9085 37.9549 23.2808 37.6106 22.8141C37.2648 22.4724 36.8961 21.8763 36.5031 21.0213C36.11 20.1678 35.7017 19.2361 35.2782 18.2275C34.8547 17.219 34.4449 16.2872 34.0534 15.4337C33.6603 14.5802 33.2917 13.9826 32.9458 13.6409C32.7249 13.2059 32.5056 12.7799 32.2862 12.3599C32.0653 11.9415 31.8459 11.5305 31.6265 11.1256C31.4376 10.7222 31.2564 10.3188 31.0842 9.91534C30.9121 9.51192 30.7948 9.09345 30.7308 8.65842C30.7003 8.41005 30.6759 8.14662 30.6607 7.86664C30.6455 7.58666 30.6378 7.32323 30.6378 7.07486C30.6074 6.64134 30.5601 6.22136 30.4962 5.81794C30.4337 5.41453 30.3545 5.01111 30.26 4.60769C30.1656 4.26599 30.0711 3.91677 29.9767 3.56001C29.8822 3.20326 29.8517 2.85403 29.8822 2.51233C29.9142 2.419 29.9218 2.3031 29.9051 2.16311C29.8898 2.02311 29.8974 1.89215 29.9279 1.76722C29.9599 1.67389 30.0148 1.58056 30.0924 1.48723C30.1717 1.3939 30.2265 1.31713 30.257 1.25391C30.289 1.1922 30.321 1.13048 30.3514 1.06726C30.3834 1.00554 30.4154 0.958876 30.4459 0.927265C30.5099 0.865548 30.5876 0.818884 30.682 0.787273C30.7765 0.757167 30.8389 0.725556 30.8709 0.693945C31.1848 0.538901 31.4986 0.445573 31.8139 0.413962C32.1278 0.383856 32.4416 0.352245 32.7569 0.320634H36.9037C37.344 0.320634 37.7995 0.337192 38.2703 0.367298C38.741 0.398909 39.1813 0.492237 39.5896 0.647281C39.7145 0.678892 39.8409 0.725556 39.9658 0.787273C40.0908 0.850495 40.202 0.912212 40.2964 0.973929C40.5478 1.12897 40.7748 1.31563 40.9789 1.53239C41.1831 1.75066 41.3796 1.98247 41.5685 2.23084C41.6629 2.35578 41.7178 2.48674 41.733 2.62673C41.7483 2.76673 41.7726 2.91424 41.8031 3.06929C41.8031 3.1009 41.8183 3.13251 41.8503 3.16262C41.8808 3.19423 41.8808 3.24089 41.8503 3.30261C41.8183 3.33422 41.7483 3.36583 41.6386 3.39594C41.5289 3.42755 41.4421 3.45916 41.3796 3.48926C41.1907 3.6142 41.0338 3.69097 40.9088 3.72258L40.4381 3.67592C40.2812 3.67592 40.1075 3.66839 39.9201 3.65334C39.7312 3.63829 39.5591 3.63076 39.4022 3.63076C38.7105 3.60066 37.8391 3.5841 36.7864 3.5841C35.7337 3.5841 34.8456 3.60066 34.1235 3.63076C33.9665 3.66237 33.7624 3.68495 33.511 3.7C33.2597 3.71656 33.0555 3.76925 32.8986 3.86258C32.8346 3.89419 32.7646 3.93182 32.6869 3.97848C32.6076 4.02515 32.5376 4.07934 32.4751 4.14105C32.4431 4.17266 32.3806 4.2103 32.2862 4.25696C32.1917 4.30362 32.1293 4.35781 32.0973 4.41953C32.0653 4.45114 32.0424 4.51286 32.0272 4.60619C32.0105 4.69951 31.9876 4.77779 31.9571 4.83951C31.9571 4.90273 31.9404 4.98702 31.9099 5.09541C31.8779 5.20379 31.8459 5.28959 31.8155 5.3513C31.8155 5.44463 31.8383 5.54549 31.8855 5.65387C31.9328 5.76225 31.9724 5.8631 32.0028 5.95643C32.1598 6.5465 32.3791 7.10496 32.6625 7.63332C32.9458 8.16167 33.2124 8.68853 33.4638 9.21688C33.7472 9.49687 34.1067 10.0629 34.547 10.9164C34.9873 11.7698 35.4656 12.7633 35.9836 13.8968C36.5015 15.0303 37.0119 16.1638 37.5146 17.2958C38.0174 18.4292 38.4881 19.4227 38.9284 20.2762C39.3687 21.1297 39.7297 21.6957 40.0115 21.9757C40.2949 22.5342 40.5844 23.1017 40.8829 23.6752C41.1815 24.2502 41.4253 24.8478 41.6127 25.468C41.7696 25.9963 41.864 26.5473 41.896 27.1208C41.9265 27.6958 41.9433 28.2618 41.9433 28.8202V31.8007C41.9433 32.2658 41.9509 32.7551 41.9661 33.2669C41.9813 33.7787 42.0987 34.2528 42.3196 34.6863C42.382 34.9046 42.4612 35.0898 42.5557 35.2448C42.6181 35.3381 42.705 35.4164 42.8147 35.4781C42.9244 35.5413 43.0264 35.6031 43.1209 35.6648L43.4515 35.9448C43.5139 35.9764 43.5931 35.9914 43.6876 35.9914C43.782 35.9914 43.8765 36.008 43.971 36.0381C44.5042 36.163 45.1333 36.2247 45.8554 36.2247C46.5776 36.2247 47.4413 36.2323 48.4468 36.2473C49.4523 36.2624 50.2993 36.2398 50.991 36.1781C51.2423 36.148 51.5013 36.1013 51.7679 36.0381C52.0345 35.9764 52.2783 35.883 52.4976 35.7581C52.5921 35.6964 52.6774 35.6271 52.7566 35.5489C52.8343 35.4721 52.9059 35.4014 52.9684 35.3396C52.9988 35.2779 53.0461 35.2313 53.1101 35.1996C53.1725 35.1695 53.2197 35.1229 53.2517 35.0597C53.3142 34.9979 53.3538 34.9197 53.369 34.8263C53.3843 34.733 53.4086 34.6397 53.4391 34.5464C53.628 34.0496 53.7225 33.5228 53.7225 32.9628V31.3326C53.7225 30.6191 53.7149 29.7656 53.6996 28.7721C53.6829 27.7786 53.7545 26.9401 53.9114 26.2582C54.0256 25.7615 54.1551 25.3054 54.1704 25.2572C54.2846 24.8944 54.408 24.5738 54.5238 24.3029M44.8165 8.19329V7.77482C44.8789 7.77482 44.9109 7.7974 44.9109 7.84406C44.9109 7.89072 44.9261 7.92986 44.9581 7.95997C45.0206 8.05329 45.0907 8.1692 45.1699 8.30919C45.2476 8.44919 45.3344 8.55004 45.4289 8.61176C45.5858 8.7367 45.8692 8.79841 46.2774 8.79841C46.4024 8.7367 46.5364 8.6825 46.6781 8.63584C46.8198 8.58918 46.9371 8.51993 47.0315 8.42661C47.094 8.36489 47.1565 8.27909 47.2204 8.17071C47.2829 8.06233 47.3301 7.97653 47.3621 7.91481C47.551 7.66644 47.7156 7.41054 47.8572 7.14711C47.9989 6.88369 48.1315 6.61123 48.2579 6.33275L49.7661 3.39895C49.955 3.02714 50.1744 2.6463 50.4258 2.25794C50.6771 1.86957 50.959 1.53691 51.2743 1.25692C51.6201 0.976939 52.0117 0.767704 52.4519 0.627713C52.8922 0.487721 53.331 0.403425 53.7712 0.371814C54.4933 0.310097 55.2322 0.286012 55.9863 0.302571C56.7404 0.319129 57.4625 0.32515 58.1542 0.32515C58.8458 0.32515 59.6304 0.364287 60.4165 0.441057C61.201 0.519332 61.8607 0.853506 62.3954 1.44207C62.4579 1.47368 62.5279 1.52035 62.6072 1.58206C62.6849 1.64529 62.7397 1.707 62.7717 1.76872C62.8342 1.89366 62.8814 2.01709 62.9134 2.14053C62.9438 2.26547 62.9758 2.3889 63.0078 2.51233C63.0703 2.63727 63.1023 2.71404 63.1023 2.74565C63.1023 2.77726 63.0855 2.80887 63.055 2.83898C63.0231 2.87059 62.9911 2.91725 62.9606 2.97897C62.8966 3.04219 62.8189 3.13402 62.7245 3.25895C62.63 3.38389 62.5508 3.47722 62.4883 3.53894C62.4243 3.57055 62.3238 3.5856 62.1821 3.5856H61.8287C61.5773 3.61721 61.3107 3.63227 61.0274 3.63227H60.226C59.5344 3.63227 58.8595 3.62474 58.1999 3.60969C57.5402 3.59463 56.8638 3.60216 56.1737 3.63227C55.7029 3.66388 55.2307 3.71807 54.7599 3.79484C54.2892 3.87311 53.8489 4.03568 53.4406 4.28406C53.0644 4.50232 52.749 4.81241 52.4976 5.21583C52.2463 5.61925 52.0101 6.00761 51.7908 6.37942C51.4145 7.06282 51.0519 7.75374 50.7076 8.4522C50.3618 9.15065 50.016 9.84158 49.6717 10.5235C49.5452 10.7402 49.4203 10.966 49.2954 11.1978C49.1689 11.4312 49.0288 11.6554 48.8719 11.8722C48.8399 11.9038 48.8018 11.9655 48.7545 12.0589C48.7073 12.1522 48.6525 12.2305 48.59 12.2922L48.0248 12.4322C47.9928 12.4322 47.938 12.4548 47.8603 12.5014C47.7811 12.5481 47.711 12.5556 47.6485 12.524C47.5541 12.524 47.4368 12.4623 47.2951 12.3373C47.1534 12.2139 47.0513 12.1206 46.9889 12.0574C46.8624 11.964 46.7528 11.8406 46.6583 11.6856C46.5638 11.5305 46.4694 11.3755 46.3749 11.2204C46.218 10.9404 46.0687 10.6544 45.927 10.3594C45.7854 10.0644 45.6361 9.77685 45.4792 9.49837C45.3847 9.28161 45.2674 9.06334 45.1257 8.84658C44.984 8.62982 44.882 8.41155 44.8195 8.19479L44.8165 8.19329Z" fill="url(#paint6_linear_726_20)"/>
<path d="M65.1772 6.2891C65.2077 6.22738 65.2397 6.16566 65.2717 6.10244C65.3021 6.04072 65.3341 5.99406 65.3661 5.96245C65.4286 5.90073 65.5154 5.86159 65.6251 5.84654C65.7348 5.83149 65.8216 5.8074 65.8841 5.7773C65.9465 5.7773 66.0334 5.74719 66.1431 5.68397C66.2528 5.62225 66.3228 5.6072 66.3548 5.63731C66.3853 5.63731 66.4249 5.67644 66.4721 5.75321C66.5194 5.83149 66.559 5.88568 66.5894 5.91578C66.8088 6.07083 66.9353 6.19577 66.9657 6.28759C66.9962 6.35081 67.0129 6.47425 67.0129 6.6594C67.0434 6.78434 67.0754 6.90024 67.1074 7.00862C67.1379 7.117 67.1546 7.23442 67.1546 7.35785V32.5955C67.1546 32.9056 67.1699 33.2247 67.2019 33.5499C67.2323 33.8765 67.3115 34.2092 67.438 34.5509C67.4685 34.6141 67.5005 34.6909 67.5324 34.7842C67.5629 34.8775 67.5949 34.9558 67.6269 35.0175C67.8783 35.3592 68.1921 35.6151 68.5699 35.7852C68.9462 35.9568 69.3392 36.0727 69.7475 36.1344C70.4696 36.2278 71.2085 36.2654 71.9626 36.2503C72.7167 36.2338 73.4388 36.2278 74.1304 36.2278C74.4763 36.2278 74.8373 36.2202 75.2136 36.2052C75.5899 36.1901 75.9357 36.1359 76.2511 36.0426C76.5649 35.9493 76.8711 35.8033 77.1697 35.6001C77.4683 35.3983 77.6801 35.1575 77.8065 34.879C78.0259 34.5373 78.1523 34.1339 78.1828 33.6688C78.2133 33.2036 78.23 32.7686 78.23 32.3652V27.616C78.23 27.2743 78.2224 26.9341 78.2072 26.5924C78.1904 26.2507 78.2468 25.9256 78.3717 25.614L78.5134 25.1022C78.5438 25.0721 78.5606 25.0405 78.5606 25.0089C78.5911 24.9787 78.6551 24.9787 78.7495 25.0089C78.844 25.0405 78.9064 25.0555 78.9384 25.0555C79.0009 25.0871 79.071 25.1022 79.1502 25.1022C79.2294 25.1022 79.2827 25.1187 79.3147 25.1488C79.3772 25.1805 79.432 25.2271 79.4792 25.2888C79.5265 25.3521 79.5661 25.3972 79.5965 25.4288C79.691 25.5538 79.7931 25.6772 79.9027 25.8006C80.0124 25.9256 80.1145 26.0641 80.209 26.2191C80.6172 26.6842 81.0255 27.2593 81.4338 27.9411C81.8421 28.6245 82.2504 29.3079 82.6586 29.9898C83.0669 30.6732 83.4752 31.2468 83.8835 31.7119C84.1349 32.1153 84.3938 32.5187 84.6604 32.9221C84.927 33.3256 85.218 33.729 85.5318 34.1324C85.6888 34.3507 85.8624 34.5674 86.0498 34.7842C86.2387 35.0025 86.4429 35.2027 86.6622 35.3893C87.3843 35.9177 88.2649 36.1886 89.3008 36.2037C90.3368 36.2202 91.2006 36.2262 91.8922 36.2262H93.2359C93.6914 36.2262 94.1225 36.2112 94.5323 36.1796C94.6892 36.1495 94.8538 36.1103 95.0274 36.0637C95.1996 36.017 95.3489 35.9628 95.4753 35.9011C95.6642 35.8078 95.8364 35.6843 95.9933 35.5293C96.1502 35.4676 96.2447 35.3893 96.2766 35.296C96.3391 35.2343 96.3787 35.165 96.394 35.0867C96.4092 35.01 96.4336 34.9543 96.464 34.9242C96.6209 34.6141 96.7154 34.304 96.7474 33.9924C96.7779 33.6823 96.8098 33.3722 96.8418 33.0606V6.56908C96.8418 6.35232 96.8571 6.13405 96.8891 5.91729C96.9195 5.88718 96.9287 5.82396 96.9119 5.73063C96.8952 5.63731 96.9043 5.57559 96.9348 5.54398C96.9652 5.48226 97.0368 5.44312 97.1465 5.42807C97.2562 5.41302 97.3263 5.38893 97.3583 5.35883C97.4207 5.35883 97.5076 5.32872 97.6173 5.2655C97.727 5.20378 97.8138 5.17217 97.8763 5.17217C97.9387 5.20378 97.9707 5.23539 97.9707 5.2655C97.9707 5.29561 97.9859 5.32872 98.0179 5.35883C98.1124 5.45216 98.2145 5.54548 98.3241 5.63881C98.4338 5.73214 98.5207 5.82547 98.5831 5.9188L98.7248 6.43059C98.8817 6.83401 98.967 7.26151 98.9838 7.71159C98.999 8.16167 99.0066 8.63584 99.0066 9.13108C99.3753 17.5562 99.744 25.9813 100.114 34.4064C99.9634 34.9076 99.6998 35.6211 99.2306 36.3994C98.5557 37.5178 97.6477 38.445 97.5457 38.3713C97.404 38.2689 98.7294 36.1179 98.865 36.1826C98.9335 36.2157 98.6776 36.8871 98.4415 37.3928C98.2525 37.7963 97.9539 38.1214 97.5457 38.3713C97.4817 38.4014 97.3888 38.433 97.2623 38.4646C97.1359 38.4947 97.0262 38.5263 96.9317 38.5579C96.5234 38.6814 96.0756 38.7446 95.5881 38.7446H92.3843C91.7718 38.7446 91.1503 38.728 90.5226 38.6979L87.7896 38.4179C87.2244 38.3547 86.65 38.302 86.0696 38.2554C85.4877 38.2087 84.9301 38.0612 84.3969 37.8128C83.8622 37.5328 83.4067 37.1445 83.0304 36.6492C82.6541 36.1525 82.2915 35.6557 81.9472 35.159C81.9152 35.1289 81.8832 35.0822 81.8527 35.019C81.8208 34.9573 81.7735 34.9106 81.7111 34.879C81.6471 34.8173 81.5542 34.7706 81.4277 34.739C81.3013 34.7089 81.1916 34.6773 81.0971 34.6457C80.9402 34.5524 80.8458 34.5223 80.8138 34.5524C80.7818 34.5524 80.7498 34.599 80.7193 34.6924C80.6873 34.7857 80.6721 34.8474 80.6721 34.879C80.5776 35.0341 80.4984 35.1891 80.436 35.3442C80.372 35.4992 80.3263 35.6542 80.2943 35.8093C80.2623 36.0577 80.2074 36.3211 80.1297 36.6011C80.0505 36.8811 79.9332 37.1279 79.7763 37.3462C79.7443 37.4395 79.6742 37.5238 79.5645 37.6021C79.4549 37.6789 79.368 37.7647 79.3056 37.858C79.2736 37.8881 79.2355 37.9347 79.1883 37.998C79.141 38.0597 79.0862 38.1064 79.0237 38.138C78.9597 38.1681 78.882 38.1997 78.7876 38.2313C78.6931 38.2614 78.5987 38.3081 78.5042 38.3713C78.064 38.5579 77.5932 38.6663 77.0905 38.6979C76.5878 38.728 76.085 38.7446 75.5823 38.7446H71.9535C71.3563 38.713 70.7667 38.6663 70.1863 38.6046C69.6043 38.5414 69.0163 38.4797 68.4191 38.4179C67.8539 38.3547 67.2643 38.278 66.6519 38.1846C66.0395 38.0913 65.5124 37.8429 65.0736 37.4395C65.0416 37.3763 65.0096 37.2995 64.9792 37.2062C64.9472 37.1129 64.8999 37.0346 64.8375 36.9729C64.6806 36.6929 64.5709 36.3903 64.5069 36.0652C64.4444 35.7385 64.3972 35.4059 64.3652 35.0642C64.3347 34.3507 64.318 33.598 64.318 32.8062V12.4818C64.318 12.0167 64.3104 11.4417 64.2951 10.7598C64.2784 10.0629 64.3134 9.38698 64.3424 8.73368M78.8333 5.21884C79.304 5.62225 79.7199 6.04223 80.0825 6.47575C80.4436 6.91078 80.7818 7.39097 81.0956 7.91932C81.2205 8.07437 81.3378 8.21436 81.449 8.33779C81.5587 8.46273 81.6913 8.60122 81.8497 8.75626L82.1331 9.03625C82.1955 9.03625 82.2427 9.02119 82.2747 8.98958C82.3067 8.95797 82.3372 8.92787 82.3692 8.89625C82.4317 8.83454 82.5185 8.77282 82.6282 8.7096C82.7379 8.64788 82.8079 8.58616 82.8399 8.52294C82.9024 8.46123 82.9344 8.39198 82.9344 8.31371C82.9344 8.23543 82.9496 8.18124 82.9816 8.15114C83.0761 7.80944 83.1858 7.47677 83.3122 7.15012C83.3701 6.99809 83.4234 6.89121 83.428 6.88368C83.5316 6.65789 83.6321 4.91477 83.7159 0.731576C91.3026 0.88662 93.2237 0.88361 93.2252 0.838451C93.2283 0.761681 87.7073 -0.200197 86.1747 2.11945C85.1586 3.65785 86.2357 6.12351 85.3917 6.44414C84.9194 6.62327 84.0694 6.04373 84.1151 5.87063C84.1364 5.79085 84.3527 5.7773 84.5386 5.7773C84.601 5.74719 84.6955 5.70806 84.8219 5.66139C84.9469 5.61473 85.0261 5.6072 85.0581 5.63881C85.0885 5.63881 85.1281 5.67795 85.1754 5.75472C85.2226 5.83299 85.2622 5.88718 85.2927 5.91729C85.3551 5.98051 85.4176 6.04976 85.4816 6.12653C85.544 6.2048 85.5913 6.27404 85.6233 6.33576C85.6537 6.36737 85.6705 6.42156 85.6705 6.49833V6.70757C85.7009 6.86261 85.7253 7.02669 85.7406 7.19678C85.7558 7.36839 85.7634 7.53096 85.7634 7.686V13.948C85.7634 14.2129 85.7314 14.4839 85.669 14.7624C85.637 14.794 85.6217 14.8632 85.6217 14.9716C85.6217 15.08 85.605 15.1658 85.5745 15.2275C85.5425 15.2907 85.4572 15.3434 85.3155 15.3901C85.1738 15.4367 85.0718 15.4759 85.0093 15.506C84.9773 15.5376 84.9453 15.5692 84.9149 15.5993C84.8844 15.6294 84.8356 15.6309 84.7732 15.5993C84.7412 15.5993 84.6787 15.5451 84.5843 15.4367C84.4898 15.3283 84.4274 15.2591 84.3954 15.2275C84.1745 14.9791 83.9719 14.7157 83.7829 14.4357C83.594 14.1557 83.4067 13.8622 83.2177 13.5506C82.8415 13.0855 82.4636 12.4954 82.0874 11.7819C81.7111 11.0684 81.3256 10.3624 80.9326 9.66395C80.5395 8.9655 80.1556 8.38295 79.7778 7.91782L78.9293 6.52091C78.8653 6.42758 78.7876 6.3192 78.6931 6.19426C78.5987 6.07083 78.5362 5.94589 78.5042 5.82246C78.4722 5.72913 78.457 5.62075 78.457 5.49581V5.16916C78.457 5.10745 78.4403 5.05326 78.4098 5.00659C78.3778 4.95993 78.3778 4.92079 78.4098 4.89068C78.4403 4.89068 78.5119 4.92982 78.6215 5.00659C78.7312 5.08487 78.8013 5.15411 78.8333 5.21583V5.21884Z" fill="url(#paint7_linear_726_20)"/>
<path d="M134.964 24.914L134.494 24.4956C134.18 24.2156 133.857 23.9597 133.528 23.7279C133.197 23.4945 132.908 23.2236 132.656 22.9135C132.342 22.5101 132.044 22.1142 131.761 21.7258C131.477 21.3375 131.069 21.05 130.536 20.8648C130.127 20.7098 129.672 20.6255 129.169 20.6089C128.666 20.5939 128.196 20.5863 127.755 20.5863C127.064 20.5863 126.357 20.5788 125.635 20.5637C124.911 20.5487 124.189 20.5562 123.467 20.5863C123.153 20.6179 122.823 20.6405 122.477 20.6556C122.131 20.6721 121.8 20.7414 121.486 20.8648C121.235 20.928 120.991 21.0123 120.757 21.1207C120.521 21.2291 120.277 21.3299 120.027 21.4233C119.963 21.4549 119.885 21.4925 119.791 21.5392C119.712 21.5783 119.631 21.6009 119.552 21.6069C119.479 21.637 119.401 21.6566 119.323 21.6762C119.105 21.7288 118.889 21.7755 118.677 21.8493C118.632 21.8658 118.584 21.8824 118.539 21.9004L117.67 22.8202C117.399 23.0565 117.017 23.2989 116.543 23.341C115.347 23.4449 114.206 22.2075 113.76 20.9747C113.718 20.4659 113.668 19.9089 113.61 19.2978C113.865 17.8633 115.018 16.5868 116.071 15.9079C117.361 15.0755 119.608 14.4342 121.298 15.5737C122.152 16.1502 122.554 16.9736 122.739 17.4508L122.722 17.4674C122.722 17.4794 122.717 17.4915 122.708 17.5005C122.711 17.514 122.714 17.5276 122.714 17.5411C122.784 17.8783 122.85 18.4037 123.243 18.777C123.7 19.209 124.354 19.2015 124.891 19.1954C126.276 19.1789 127.675 19.1668 129.216 19.1428C129.719 19.1428 130.207 19.1277 130.677 19.0961C131.148 19.066 131.573 18.9727 131.949 18.8161C132.358 18.6611 132.696 18.4277 132.963 18.1177C133.229 17.8076 133.488 17.4975 133.739 17.1859C134.023 16.8442 134.329 16.504 134.658 16.1608C134.989 15.8191 135.216 15.4473 135.341 15.0439C135.371 14.9821 135.38 14.9039 135.363 14.8105C135.347 14.7172 135.356 14.6404 135.386 14.5772C135.449 14.1422 135.441 13.7162 135.363 13.2962C135.284 12.8778 135.167 12.4668 135.01 12.0619C134.789 11.38 134.5 10.7282 134.139 10.1065C133.778 9.48634 133.377 8.91132 132.937 8.38447C132.591 7.98105 132.213 7.60022 131.806 7.24346C131.398 6.88671 131.005 6.50587 130.629 6.10246C130.126 5.60571 129.638 5.10144 129.168 4.58964C128.697 4.07784 128.177 3.62024 127.612 3.21682C127.329 2.93684 126.803 2.65083 126.034 2.3558C125.263 2.06076 124.392 1.77325 123.418 1.49477C121.349 0.900183 120.466 0.876098 120.473 0.749654C120.49 0.459133 125.1 0.581062 125.105 0.439565C125.109 0.313121 121.448 0.112917 118.703 0.0256106C118.037 0.00453662 116.279 -0.0466431 114.183 0.121949C113.459 0.17915 112.818 0.249898 112.11 0.377848C111.418 0.502787 110.632 0.687937 109.753 0.936309C108.872 1.18468 108.073 1.47972 107.349 1.82142C106.657 2.25645 105.888 2.7833 105.039 3.40498C104.191 4.02666 103.406 4.6619 102.683 5.31368C101.991 5.90376 101.324 6.54049 100.679 7.22239C100.035 7.90579 99.4926 8.60424 99.0539 9.31775C98.708 9.65945 98.4171 10.3188 98.1825 11.2972C97.9463 12.2756 97.7666 13.3534 97.6401 14.5336C97.5152 15.7137 97.4207 16.7915 97.3568 17.7699C97.2943 18.7484 97.2623 19.4077 97.2623 19.7494C97.2623 20.2145 97.2699 20.8979 97.2852 21.7981C97.3019 22.6982 97.3491 23.5984 97.4268 24.4986C97.5061 25.3987 97.6234 26.0821 97.7803 26.5473C98.0636 27.9442 98.5816 29.2176 99.3357 30.3647C99.776 31.0481 100.279 31.7315 100.844 32.4134C101.22 32.9101 101.598 33.4144 101.974 33.9262C102.351 34.438 102.744 34.9272 103.152 35.3923C103.498 35.7641 103.874 36.1073 104.282 36.4159C104.691 36.726 105.099 37.0211 105.507 37.301C105.853 37.6427 106.481 37.9528 107.392 38.2328C108.303 38.5128 109.308 38.7597 110.408 38.9779C111.508 39.1947 112.512 39.3573 113.424 39.4671C114.335 39.5755 114.963 39.6448 115.309 39.6764C115.592 39.7065 116.18 39.6689 117.076 39.5605C117.972 39.4521 119.008 39.2971 120.187 39.0953C121.365 38.8936 122.544 38.6603 123.721 38.3969C124.899 38.1335 125.936 37.8535 126.831 37.5584C127.726 37.2634 128.315 36.9759 128.598 36.6974C129.258 36.2624 129.862 35.7656 130.412 35.2072C130.962 34.6487 131.488 34.0737 131.991 33.4851C132.367 33.0501 132.745 32.6091 133.121 32.1575C133.497 31.7074 133.828 31.2347 134.111 30.738C134.425 30.2111 134.692 29.6512 134.913 29.0626C135.132 28.474 135.274 27.884 135.336 27.2939C135.398 26.8905 135.414 26.4795 135.383 26.0596C135.351 25.6411 135.21 25.2602 134.96 24.9185L134.964 24.914ZM117.647 22.9346C117.663 22.9812 117.64 23.0204 117.577 23.0505C117.545 23.0821 117.483 23.0971 117.388 23.0971L117.647 22.9346ZM132.562 26.8694C132.435 27.5528 132.263 28.1579 132.044 28.6848C131.855 29.1198 131.651 29.5458 131.431 29.9658C131.212 30.3842 130.961 30.7967 130.677 31.2001C130.207 31.6652 129.6 32.171 128.863 32.7129C128.124 33.2563 127.387 33.7606 126.648 34.2257C125.909 34.6909 125.304 35.0642 124.833 35.3427C124.142 35.6226 123.403 35.8469 122.618 36.017C121.832 36.1886 121.078 36.3196 120.356 36.4129C119.948 36.4746 119.515 36.5213 119.06 36.5529C118.604 36.583 118.156 36.6146 117.716 36.6462C117.433 36.6763 116.797 36.5303 115.807 36.2037C114.817 35.877 113.654 35.451 112.32 34.9227C110.984 34.3958 109.649 33.8283 108.315 33.2232C106.979 32.6181 105.818 32.0521 104.828 31.5237C103.837 30.9969 103.202 30.592 102.919 30.3135C102.635 30.0335 102.392 29.5142 102.189 28.754C101.985 27.9938 101.813 27.1087 101.671 26.1002C101.529 25.0917 101.42 24.0906 101.341 23.0971C101.261 22.1037 101.206 21.2276 101.176 20.4659C101.144 19.7057 101.129 19.1849 101.129 18.9064C101.129 18.5647 101.159 17.9521 101.223 17.067C101.286 16.1819 101.395 15.2125 101.554 14.1572C101.711 13.102 101.915 12.1311 102.166 11.2475C102.418 10.3624 102.716 9.74977 103.062 9.40807C103.345 9.12808 103.981 8.7337 104.971 8.2204C105.961 7.7086 107.122 7.15766 108.458 6.56759C109.793 5.97902 111.127 5.41906 112.463 4.8907C113.798 4.36385 114.96 3.94387 115.95 3.63378C116.941 3.32369 117.576 3.1837 117.859 3.21531C118.77 3.24693 119.681 3.34025 120.592 3.4953C121.314 3.62024 122.163 3.79033 123.136 4.0071C124.11 4.22386 124.943 4.51889 125.633 4.8922C125.979 5.20229 126.442 5.62227 127.023 6.14912C127.603 6.67747 128.208 7.23594 128.837 7.82601C129.465 8.41608 130.054 8.9896 130.604 9.54806C131.154 10.1065 131.585 10.5566 131.901 10.8983C130.21 11.252 128.951 11.8662 128.97 12.3976C128.989 12.9605 130.449 13.5371 132.56 13.6921V14.0413C132.56 14.1497 132.544 14.2506 132.513 14.3439C132.356 15.0589 131.931 15.5707 131.241 15.8808C131.115 15.9124 130.99 15.935 130.865 15.95C130.738 15.9666 130.613 15.9892 130.488 16.0193C130.018 16.1126 129.538 16.1518 129.052 16.1352C128.564 16.1201 128.086 16.1126 127.615 16.1126H125.455C125.077 14.6645 123.657 12.2741 121.433 11.6208C118.938 10.8878 115.97 12.5029 115.504 12.7603C115.25 12.9003 115.074 13.0087 115.033 13.0403C113.717 13.9962 112.906 15.0996 112.906 15.0996C112.801 15.2832 112.638 15.5858 112.474 15.9711C110.51 20.5803 113.066 26.0821 113.68 25.9707C113.772 25.9542 113.853 25.8082 113.9 25.4153C114.159 25.9948 114.559 26.463 115.103 26.8212C115.716 27.2246 116.368 27.4113 117.059 27.3797C117.562 27.3797 118.04 27.2563 118.496 27.0079C118.951 26.7595 119.352 26.4645 119.698 26.1228C119.949 25.8744 120.176 25.6185 120.38 25.3551C120.585 25.0917 120.812 24.8508 121.063 24.634C121.753 24.1072 122.554 23.8272 123.467 23.7956C124.378 23.7655 125.179 23.7489 125.871 23.7489H128.746C129.059 23.7489 129.366 23.7565 129.664 23.7715C129.963 23.7881 130.237 23.8257 130.488 23.8874C130.772 23.919 131.054 23.9883 131.337 24.0967C131.62 24.205 131.855 24.3691 132.044 24.5859C132.106 24.6175 132.161 24.6867 132.208 24.7951C132.256 24.9035 132.295 24.9893 132.326 25.051C132.609 25.5794 132.687 26.1845 132.562 26.8664V26.8694Z" fill="url(#paint8_linear_726_20)"/>
<path d="M161.138 21.7198C161.145 21.9516 161.189 22.2602 161.365 22.5613C161.496 22.7855 161.65 22.918 161.673 22.9376C161.964 23.2055 162.318 25.051 162.737 30.2593C163.259 29.8739 163.824 29.597 164.249 29.7836C165.016 30.1208 165.038 31.8398 164.979 31.8519C164.936 31.8609 164.626 31.0165 164.615 30.1705C164.595 28.7826 165.381 27.4941 165.639 27.5603C166.137 27.6898 164.923 32.9869 165.319 33.0802C165.496 33.1223 165.946 32.1033 166.822 29.3832C167.106 29.88 167.403 30.3767 167.718 30.8735C168.032 31.3702 168.314 31.882 168.567 32.4103C168.692 32.6271 168.809 32.8604 168.92 33.1088C169.03 33.3572 169.1 33.6055 169.132 33.8539C169.61 33.9126 170.168 34.0436 170.267 34.3717C170.573 35.3953 166.202 37.6954 166.053 37.4862C165.922 37.301 168.89 34.9167 169.062 35.0883C169.121 35.147 168.858 35.5022 168.661 35.7626C167.845 36.8494 166.682 37.4696 165.174 37.6247C164.703 37.6548 164.027 37.6713 163.148 37.6713H156.338C155.567 37.6713 154.838 37.5629 154.147 37.3447C153.802 37.2197 153.471 37.0572 153.157 36.8555C152.843 36.6538 152.528 36.443 152.214 36.2263C151.931 35.9463 151.555 35.7145 151.084 35.5278C151.052 35.4977 150.997 35.4661 150.919 35.4345C150.84 35.4044 150.77 35.3878 150.708 35.3878C150.613 35.3878 150.471 35.4194 150.284 35.4811C150.22 35.5127 150.135 35.5278 150.025 35.5278C149.915 35.5278 149.828 35.5444 149.766 35.5745C149.672 35.6061 149.585 35.6603 149.507 35.737C149.428 35.8153 149.343 35.8846 149.248 35.9463C148.934 36.1645 148.619 36.4039 148.305 36.6673C147.991 36.9307 147.645 37.14 147.269 37.2965C146.766 37.5133 146.248 37.6292 145.714 37.6457C145.179 37.6608 144.661 37.6683 144.158 37.6683H141.52C140.452 37.6683 139.556 37.6518 138.834 37.6217C138.394 37.59 137.93 37.5524 137.444 37.5057C136.957 37.4591 136.526 37.3266 136.148 37.1099C135.834 36.9548 135.566 36.738 135.347 36.4581C135.19 36.303 135.04 36.1254 134.899 35.9222C134.757 35.7205 134.608 35.5263 134.451 35.3396C134.2 34.9979 133.948 34.6337 133.697 34.2453C133.445 33.8569 133.258 33.446 133.132 33.011C133.037 32.6392 132.99 32.2508 132.99 31.8474V8.66294C132.99 8.04276 132.982 7.41355 132.967 6.77681C132.952 6.14158 132.975 5.52743 133.037 4.93735C133.077 4.56705 133.136 4.31718 133.179 4.09891C133.296 3.4983 133.445 2.6147 133.566 1.42401C133.781 1.37434 134.082 1.30811 134.443 1.23736C135.114 1.10489 135.709 1.01006 136.497 0.903184C138.179 0.674381 139.02 0.559979 139.914 0.555463C140.63 0.552452 141.021 0.550947 141.517 0.630727C144.161 1.06124 145.839 3.20025 147.362 3.2138C147.874 3.21832 148.445 3.16714 148.445 3.16714C148.445 3.16714 148.983 3.16714 149.481 3.02714C149.978 2.88715 150.273 2.25794 150.65 1.83646C151.107 1.32466 151.711 1.16209 152.918 0.835446C152.918 0.835446 155.36 0.176131 157.944 0.544926C158.087 0.566 158.468 0.605137 158.992 0.654812C159.338 0.687928 159.804 0.701476 160.496 0.648791C161.67 0.559979 162.427 0.359776 162.575 0.648791C162.773 1.03414 161.824 2.12247 161.964 2.32869C162.06 2.46868 162.203 2.32869 162.886 2.51535C163.341 2.64029 163.789 2.76372 164.23 2.88715C164.7 3.01209 165.179 3.09639 165.666 3.14305C166.152 3.18972 166.615 3.29057 167.055 3.44561C167.15 3.47723 167.26 3.50884 167.386 3.53894C167.511 3.57055 167.605 3.61722 167.669 3.67893C166.419 4.97649 165.323 6.01664 164.502 6.76929C160.075 10.826 157.682 11.9821 156.867 14.9897C156.49 16.379 156.672 17.3469 156.722 17.5878C156.838 18.1417 157.155 18.8417 160.36 21.8222C162.074 23.4163 162.817 23.9853 163.349 25.2738C163.584 25.8413 163.803 26.6105 163.89 26.5909C163.995 26.5668 163.602 24.9562 163.724 24.9231C163.771 24.9095 163.91 25.1263 164.373 26.4043M160.974 6.16416C161.809 6.21083 165.788 6.4035 166.068 5.33174C166.088 5.25647 166.09 5.17067 166.068 5.07584C166.068 5.01412 166.045 4.92832 165.998 4.81994C165.951 4.71156 165.896 4.62576 165.834 4.56404L165.692 4.19224L165.316 4.00558C165.221 3.97548 165.127 3.93634 165.032 3.88967C164.938 3.84301 164.859 3.80387 164.796 3.77377C164.67 3.71205 164.545 3.68797 164.42 3.70452C164.294 3.72108 164.169 3.71205 164.044 3.68194C163.73 3.62023 163.414 3.59614 163.101 3.6127C162.787 3.62926 162.471 3.63528 162.158 3.63528H159.283C158.78 3.63528 158.293 3.62775 157.822 3.6127C157.351 3.59765 156.864 3.62023 156.361 3.68194C156.11 3.71356 155.851 3.74517 155.584 3.77527C155.316 3.80688 155.057 3.8686 154.807 3.96193C154.242 4.18019 153.777 4.52039 153.418 4.98552C153.057 5.45066 152.735 5.9474 152.452 6.47576L150.52 9.82803C150.363 10.1381 150.19 10.4723 150.002 10.829C149.813 11.1858 149.594 11.4884 149.343 11.7367C149.311 11.7683 149.248 11.8376 149.154 11.946C149.059 12.0544 148.98 12.1251 148.917 12.1552C148.823 12.1552 148.713 12.0935 148.587 11.9685C148.46 11.9685 148.351 11.9219 148.256 11.8286C148.224 11.7668 148.209 11.6961 148.209 11.6193V11.4568C148.177 11.3017 148.154 11.1467 148.139 10.9916C148.122 10.8366 148.116 10.6966 148.116 10.5731V8.73369C148.116 8.12856 148.099 7.53096 148.069 6.94089C148.069 6.32071 147.959 5.74569 147.738 5.21734C147.706 5.15562 147.683 5.07735 147.668 4.98402C147.651 4.89069 147.613 4.81392 147.551 4.7507L147.22 4.47072C147.156 4.409 147.086 4.33072 147.009 4.2374C146.929 4.14407 146.844 4.08235 146.75 4.05074C146.529 3.92731 146.27 3.8415 145.973 3.79484C145.674 3.74818 145.4 3.70904 145.148 3.67893C144.678 3.61722 144.205 3.59313 143.735 3.60969C143.264 3.62625 142.776 3.63227 142.274 3.63227C141.803 3.63227 141.323 3.62474 140.837 3.60969C140.35 3.59464 139.871 3.61722 139.401 3.67893C138.992 3.71054 138.576 3.79484 138.151 3.93483C137.728 4.07482 137.39 4.33072 137.138 4.70253C136.919 5.01262 136.777 5.38593 136.715 5.81945C136.651 6.25448 136.605 6.6579 136.573 7.0297V28.8714C136.573 29.5548 136.556 30.3541 136.526 31.2693C136.494 32.1846 136.541 33.0004 136.668 33.7139C136.73 34.149 136.856 34.5674 137.044 34.9708C137.233 35.3743 137.53 35.6859 137.94 35.9026L138.458 36.0426C138.771 36.1058 139.078 36.151 139.376 36.1826C139.675 36.2142 139.981 36.2293 140.295 36.2293C141.017 36.2293 141.858 36.2368 142.816 36.2518C143.774 36.2669 144.599 36.2443 145.29 36.1826C145.73 36.1209 146.162 36.0276 146.587 35.9026C147.01 35.7792 147.348 35.5308 147.6 35.1575C147.662 35.0958 147.694 35.0265 147.694 34.9483C147.694 34.87 147.709 34.8173 147.741 34.7857C147.898 34.4756 147.993 34.1655 148.025 33.8539C148.055 33.5438 148.087 33.2337 148.119 32.9221C148.119 32.2086 148.112 31.5027 148.096 30.8042C148.08 30.1058 148.089 29.4148 148.119 28.7314C148.119 28.328 148.166 27.9396 148.261 27.5678C148.291 27.5061 148.308 27.4278 148.308 27.3345C148.308 27.2412 148.323 27.1795 148.355 27.1479C148.418 27.1178 148.497 27.1087 148.591 27.1253C148.686 27.1418 148.748 27.1479 148.78 27.1479L149.204 27.1012C149.266 27.1328 149.336 27.2096 149.416 27.3345C149.493 27.4595 149.548 27.5528 149.58 27.6145C149.8 27.9246 149.996 28.2362 150.17 28.5463C150.342 28.8564 150.506 29.183 150.665 29.5247L152.691 33.0636C153.037 33.6853 153.453 34.2829 153.94 34.8564C154.426 35.4315 155.016 35.8108 155.707 35.9974C156.241 36.1525 156.791 36.2308 157.357 36.2308H158.96C159.682 36.2308 160.506 36.2383 161.434 36.2533C162.36 36.2684 163.169 36.2609 163.861 36.2308C164.175 36.2308 164.498 36.2232 164.827 36.2082C165.157 36.1931 165.464 36.1224 165.745 35.999C165.902 35.9372 166.044 35.8439 166.169 35.719C166.231 35.6573 166.311 35.6031 166.405 35.5564C166.499 35.5097 166.562 35.4706 166.594 35.4405C166.656 35.3788 166.688 35.308 166.688 35.2313C166.688 35.1545 166.704 35.0988 166.736 35.0687C166.766 34.9754 166.806 34.8745 166.853 34.7661C166.9 34.6577 166.923 34.5569 166.923 34.4636C166.923 34.3401 166.9 34.2152 166.853 34.0918C166.806 33.9683 166.751 33.8434 166.688 33.7199C166.624 33.4716 166.524 33.2157 166.382 32.9523C166.24 32.6888 166.091 32.4329 165.934 32.1846C165.745 31.8429 165.558 31.5102 165.369 31.1835C165.18 30.8569 164.961 30.5092 164.709 30.1359C164.239 29.6707 163.766 28.9647 163.296 28.0179C162.825 27.0711 162.353 26.1318 161.882 25.2015C161.411 24.2713 160.939 23.5713 160.468 23.1062C160.122 22.486 159.754 21.8252 159.361 21.1267C158.824 20.1724 159.033 19.6696 158.818 19.0554C158.175 17.216 156.139 17.07 155.47 16.069C154.737 14.9731 155.363 12.4277 160.98 6.1747L160.974 6.16416Z" fill="url(#paint9_linear_726_20)"/>
<path d="M172.496 1.80333V0.325134H179.531V1.80333H176.92V8.79388H175.113V1.80333H172.496Z" fill="url(#paint10_linear_726_20)"/>
<path d="M180.699 0.325134H182.931L185.29 6.01512H185.387L187.751 0.325134H190V8.79388H188.222V3.28001H188.158L185.932 8.75324H184.73L182.528 3.26797H182.453V8.79388H180.698V0.325134H180.699Z" fill="url(#paint11_linear_726_20)"/>
<path d="M179.898 2.9007C179.89 2.97898 179.883 3.05725 179.874 3.13854C179.866 3.21982 179.842 3.29208 179.804 3.35379C179.749 3.44712 179.674 3.51636 179.58 3.56303C179.485 3.60969 179.383 3.6413 179.273 3.65635C179.124 3.67141 178.969 3.67743 178.809 3.67442C178.647 3.6699 178.489 3.67291 178.332 3.68044C178.27 3.68797 178.198 3.69549 178.12 3.70452C178.041 3.71205 177.971 3.73162 177.908 3.76323C177.893 3.77076 177.875 3.78581 177.855 3.80989C177.835 3.83398 177.817 3.85204 177.802 3.8686C177.794 3.87613 177.782 3.88666 177.767 3.8972C177.752 3.90924 177.739 3.92279 177.732 3.93784C177.717 3.96945 177.707 3.99655 177.707 4.01913C177.692 4.07332 177.678 4.1245 177.666 4.16966C177.654 4.21482 177.648 4.2675 177.648 4.32169C177.64 4.45416 177.636 4.58963 177.636 4.72962V8.3378C177.636 8.47026 177.628 8.60122 177.613 8.73369C177.605 8.78788 177.593 8.8496 177.578 8.92034C177.563 8.98959 177.535 9.05281 177.496 9.107L177.413 9.15366C177.398 9.16872 177.378 9.18678 177.354 9.20635C177.33 9.22592 177.307 9.24248 177.284 9.25903L177.13 9.29366C176.996 9.32527 176.857 9.33881 176.711 9.3343C176.566 9.32978 176.423 9.32828 176.281 9.32828H175.722C175.521 9.32828 175.331 9.32075 175.151 9.3057C175.064 9.3057 174.97 9.28613 174.868 9.24699C174.86 9.24699 174.843 9.24549 174.82 9.24097C174.798 9.23645 174.781 9.23194 174.773 9.22291L174.785 9.107C174.793 9.09947 174.81 9.09496 174.833 9.09496C174.856 9.09496 174.872 9.09044 174.88 9.08292C174.967 9.06786 175.046 9.06034 175.121 9.06034H175.351C175.468 9.06034 175.616 9.05281 175.792 9.03776C175.969 9.0227 176.138 8.98808 176.3 8.93239C176.461 8.8782 176.577 8.79239 176.647 8.67649C176.679 8.61477 176.697 8.54854 176.707 8.47929C176.714 8.41005 176.719 8.34382 176.719 8.2821C176.734 8.14964 176.74 8.01567 176.737 7.88019C176.732 7.74471 176.731 7.61074 176.731 7.47828V4.52491C176.731 4.38943 176.735 4.25546 176.743 4.12299C176.743 4.06128 176.748 3.99354 176.755 3.91978C176.763 3.84602 176.783 3.78129 176.815 3.7271C176.87 3.61872 176.95 3.54346 177.057 3.4998C177.164 3.45766 177.27 3.43207 177.381 3.42454C177.538 3.40949 177.694 3.40347 177.846 3.40648C177.998 3.41099 178.151 3.40798 178.3 3.40046C178.362 3.39293 178.429 3.38089 178.5 3.36583C178.57 3.35078 178.634 3.3267 178.688 3.29659C178.775 3.2424 178.841 3.16864 178.888 3.07531C178.935 2.98199 178.966 2.88565 178.983 2.78479C178.998 2.6448 179.007 2.50481 179.007 2.36632V1.94785C179.007 1.83947 179.002 1.7326 178.995 1.62723C178.987 1.52186 178.96 1.4195 178.912 1.31864C178.905 1.30359 178.899 1.28252 178.894 1.25392C178.89 1.22682 178.88 1.20876 178.865 1.20123C178.81 1.11543 178.734 1.05221 178.635 1.00855C178.538 0.966407 178.437 0.940817 178.335 0.93329C178.163 0.909206 177.976 0.900174 177.776 0.90469C177.576 0.909206 177.384 0.910711 177.205 0.910711H172.234C172.124 0.910711 172.022 0.93028 171.927 0.969417C171.905 0.976944 171.882 0.987481 171.863 0.998018C171.844 1.01006 171.825 1.02361 171.81 1.03866C171.763 1.05371 171.728 1.07328 171.704 1.09737C171.696 1.10489 171.685 1.12145 171.675 1.14403C171.664 1.16661 171.649 1.18618 171.633 1.20274C171.531 1.3352 171.478 1.48724 171.475 1.66185C171.47 1.83646 171.469 2.00204 171.469 2.15709V2.69297C171.469 2.76221 171.461 2.83296 171.446 2.90221C171.446 2.90973 171.445 2.9293 171.44 2.96091C171.435 2.99252 171.429 3.0151 171.422 3.03016C171.414 3.03768 171.399 3.0422 171.374 3.0422H171.327C171.32 3.0422 171.304 3.04671 171.28 3.05424C171.257 3.06177 171.237 3.06177 171.221 3.05424C171.213 3.04671 171.201 3.02714 171.186 2.99553C171.17 2.96392 171.158 2.94586 171.151 2.93683L171.068 2.83146C171.036 2.73813 171.021 2.65684 171.021 2.5876C171.006 2.47922 170.998 2.36783 170.998 2.25644V1.92527C170.998 1.80937 171 1.66787 171.004 1.50078C171.009 1.3337 171.032 1.16661 171.074 0.999523C171.117 0.832436 171.195 0.690939 171.304 0.575032C171.32 0.559979 171.336 0.54041 171.352 0.516326C171.367 0.493746 171.387 0.474178 171.411 0.45762C171.545 0.334186 171.697 0.263438 171.871 0.248385C172.043 0.233332 172.217 0.2243 172.389 0.2243H177.384C177.534 0.2243 177.681 0.222795 177.826 0.218279C177.971 0.213763 178.119 0.219784 178.268 0.236342C178.37 0.243869 178.474 0.257416 178.58 0.276985C178.687 0.296554 178.783 0.332681 178.868 0.386871C178.986 0.448588 179.078 0.532884 179.146 0.636749C179.213 0.742119 179.286 0.844478 179.363 0.945333C179.45 1.04619 179.539 1.14102 179.628 1.22983C179.718 1.31864 179.787 1.42552 179.834 1.55046C179.874 1.63626 179.897 1.73109 179.904 1.83496C179.912 1.94033 179.916 2.03817 179.916 2.1315L179.904 2.8992L179.898 2.9007ZM172.406 3.4125C172.548 3.4125 172.689 3.41099 172.829 3.40648C172.971 3.40196 173.113 3.40798 173.253 3.42454C173.277 3.43207 173.3 3.43508 173.323 3.43056C173.347 3.42605 173.366 3.42906 173.382 3.43658L173.536 3.51787C173.551 3.52539 173.568 3.53292 173.583 3.54045C173.599 3.54797 173.611 3.5555 173.618 3.56453C173.634 3.57959 173.647 3.60367 173.66 3.63378C173.672 3.66388 173.681 3.69248 173.689 3.71506C173.736 3.82344 173.756 3.94838 173.748 4.08687C173.74 4.22686 173.736 4.35782 173.736 4.48276V7.36388C173.736 7.53096 173.737 7.69956 173.742 7.86965C173.746 8.03975 173.743 8.18426 173.736 8.30017C173.736 8.33178 173.737 8.36941 173.742 8.41607C173.746 8.46274 173.74 8.50187 173.724 8.53198C173.716 8.54703 173.702 8.5666 173.682 8.59069C173.663 8.61327 173.644 8.63283 173.629 8.64939C173.622 8.64939 173.611 8.66143 173.6 8.68401C173.59 8.70659 173.579 8.71864 173.571 8.71864C173.564 8.71864 173.556 8.71261 173.548 8.70057C173.541 8.68853 173.529 8.6795 173.513 8.67197C173.506 8.65692 173.492 8.64036 173.472 8.62531C173.452 8.61025 173.434 8.5937 173.419 8.57864C173.387 8.55606 173.367 8.52897 173.359 8.49736C173.352 8.46575 173.34 8.43113 173.324 8.39199C173.292 8.30619 173.276 8.21587 173.271 8.11803C173.267 8.02169 173.265 7.92535 173.265 7.83353V4.53544C173.265 4.4391 173.257 4.33976 173.242 4.2389V4.16364C173.242 4.13654 173.235 4.11095 173.219 4.08837C173.212 4.06579 173.201 4.04321 173.19 4.02364C173.178 4.00408 173.169 3.983 173.161 3.96042L173.091 3.84452C173.084 3.82946 173.065 3.81592 173.038 3.80387C173.011 3.79183 172.989 3.7828 172.974 3.77527L172.867 3.70603C172.788 3.66689 172.704 3.64431 172.615 3.63679C172.525 3.62926 172.439 3.60969 172.362 3.57808C172.33 3.56303 172.302 3.54647 172.279 3.53142C172.257 3.51636 172.232 3.4998 172.209 3.48475C172.202 3.47723 172.19 3.4712 172.174 3.46669C172.159 3.46368 172.151 3.45766 172.151 3.44863C172.151 3.43357 172.161 3.42906 172.18 3.43658C172.2 3.44411 172.214 3.44411 172.221 3.43658C172.244 3.42906 172.272 3.42304 172.304 3.41852C172.336 3.414 172.371 3.4125 172.41 3.4125H172.406Z" fill="url(#paint12_linear_726_20)"/>
<path d="M189.028 1.65431V7.14861C189.028 7.25699 189.027 7.36989 189.022 7.4858C189.017 7.6017 189.008 7.7146 188.993 7.82298C188.978 7.95545 188.938 8.07135 188.876 8.17221C188.868 8.17973 188.856 8.20081 188.841 8.23543C188.825 8.27005 188.813 8.28811 188.806 8.28811L188.783 8.26403C188.768 8.24898 188.745 8.23091 188.717 8.21134C188.69 8.19178 188.672 8.17522 188.664 8.15866C188.656 8.14361 188.652 8.12253 188.652 8.09393V8.03071C188.644 7.97652 188.64 7.92534 188.64 7.87868V2.85403C188.64 2.6749 188.641 2.46265 188.646 2.21428C188.65 1.96591 188.644 1.75667 188.627 1.58507C188.627 1.52335 188.623 1.45863 188.615 1.39239C188.608 1.32616 188.588 1.26595 188.556 1.21176C188.548 1.19671 188.533 1.17714 188.509 1.15305C188.484 1.12897 188.466 1.1109 188.449 1.09435C188.434 1.05521 188.414 1.03263 188.39 1.0251C188.375 1.01005 188.35 0.998008 188.32 0.990482C188.288 0.982956 188.265 0.975429 188.25 0.966397C188.132 0.92726 188.009 0.907691 187.878 0.907691H186.799C186.737 0.915218 186.668 0.921239 186.594 0.925755C186.519 0.93027 186.45 0.939302 186.388 0.954355C186.239 1.00102 186.115 1.0823 186.016 1.19821C185.917 1.31412 185.826 1.43906 185.739 1.57002L185.139 2.54845C185.076 2.64931 185.012 2.75167 184.95 2.85704C184.887 2.96241 184.823 3.06928 184.761 3.17766C184.729 3.23185 184.694 3.28906 184.654 3.34626C184.615 3.40496 184.575 3.46066 184.537 3.51485L184.43 3.6428C184.423 3.65032 184.417 3.65785 184.412 3.66538C184.407 3.6729 184.403 3.68043 184.394 3.68946C184.379 3.69699 184.353 3.7015 184.318 3.7015H184.229L184.135 3.71355C184.127 3.70602 184.116 3.69398 184.106 3.67893C184.094 3.66387 184.085 3.65183 184.077 3.6443C184.045 3.60517 184.014 3.57054 183.982 3.53893C183.95 3.50732 183.92 3.4727 183.888 3.43356C183.801 3.3011 183.719 3.16562 183.641 3.02563C183.562 2.88564 183.48 2.75016 183.394 2.6177C183.292 2.45513 183.19 2.28954 183.088 2.12246C182.986 1.95537 182.884 1.79129 182.782 1.62722C182.703 1.50378 182.619 1.38035 182.529 1.25993C182.439 1.13951 182.326 1.0522 182.194 0.998008C182.131 0.966397 182.063 0.948334 181.988 0.939302C181.914 0.931776 181.845 0.924249 181.783 0.916723C181.656 0.90167 181.536 0.895649 181.417 0.898659C181.3 0.903175 181.178 0.904681 181.051 0.904681C180.934 0.904681 180.814 0.903175 180.692 0.898659C180.57 0.894144 180.451 0.909196 180.332 0.939302L180.191 0.973924C180.159 0.988977 180.121 1.01306 180.073 1.04317C180.026 1.07478 179.994 1.10488 179.979 1.13649L179.944 1.21778C179.897 1.31863 179.869 1.41497 179.862 1.5083C179.839 1.6784 179.83 1.88462 179.839 2.12547C179.846 2.36631 179.851 2.57555 179.851 2.75468V8.22038C179.858 8.29865 179.866 8.37542 179.875 8.4537C179.883 8.53197 179.903 8.60874 179.935 8.68702C179.95 8.74873 179.967 8.79239 179.982 8.81497C179.99 8.83754 180.014 8.85711 180.052 8.87367C180.067 8.88872 180.085 8.90679 180.105 8.92636C180.125 8.94592 180.146 8.96399 180.169 8.97904C180.194 8.98657 180.223 8.99409 180.258 9.00162C180.293 9.00915 180.326 9.01667 180.358 9.0242C180.428 9.03925 180.501 9.04979 180.576 9.0528C180.651 9.05732 180.724 9.05882 180.794 9.05882H181.655C181.702 9.05882 181.749 9.06334 181.796 9.07086C181.812 9.07839 181.833 9.08291 181.86 9.08291C181.888 9.08291 181.906 9.08742 181.914 9.09495C181.953 9.11 181.976 9.12957 181.984 9.15366C181.999 9.16118 182.019 9.17322 182.043 9.18828C182.066 9.20333 182.083 9.21989 182.09 9.23494C182.09 9.24247 182.081 9.26053 182.061 9.28763C182.042 9.31472 182.028 9.33579 182.02 9.35235L181.985 9.44568C181.978 9.45321 181.959 9.46073 181.932 9.46826C181.904 9.47579 181.883 9.48783 181.868 9.50288C181.726 9.5646 181.585 9.59621 181.444 9.59621C181.272 9.60374 181.059 9.60825 180.808 9.60825C180.556 9.60825 180.34 9.60374 180.16 9.59621C180.011 9.58868 179.863 9.5646 179.718 9.52697C179.572 9.48783 179.446 9.41106 179.336 9.29365C179.257 9.20785 179.199 9.11301 179.159 9.00915C179.12 8.90378 179.089 8.80142 179.065 8.70056C179.033 8.58466 179.011 8.43864 178.999 8.26403C178.987 8.08942 178.981 7.9148 178.981 7.74019V1.86505C178.981 1.74915 178.983 1.62571 178.987 1.49776C178.992 1.36981 179.013 1.25541 179.053 1.15456C179.132 0.984461 179.245 0.859522 179.394 0.782752C179.464 0.743615 179.542 0.71652 179.624 0.701467C179.706 0.686414 179.787 0.662329 179.865 0.632224C180.022 0.56298 180.169 0.472663 180.306 0.364282C180.443 0.255902 180.599 0.185153 180.771 0.155048C180.881 0.132468 180.995 0.120426 181.112 0.120426H181.996C182.185 0.120426 182.357 0.152037 182.514 0.213754C182.663 0.267944 182.8 0.365788 182.927 0.504274C182.989 0.573517 183.049 0.650287 183.103 0.731573C183.158 0.812858 183.213 0.897154 183.268 0.98145L183.716 1.71453C183.748 1.76119 183.783 1.81387 183.822 1.87108C183.862 1.92978 183.905 1.97795 183.952 2.01709C183.967 2.02461 183.987 2.03214 184.011 2.03967C184.034 2.04719 184.054 2.05924 184.071 2.07429L184.165 2.12095C184.18 2.12095 184.199 2.11644 184.219 2.10891C184.238 2.10138 184.252 2.09386 184.26 2.08633C184.284 2.0788 184.308 2.07128 184.336 2.06375C184.363 2.05623 184.385 2.0487 184.401 2.03967C184.424 2.02461 184.45 1.99902 184.478 1.9644C184.505 1.92978 184.526 1.89968 184.543 1.8771C184.575 1.84549 184.602 1.81086 184.625 1.77173C184.65 1.73259 184.673 1.69797 184.695 1.66636C184.765 1.55045 184.839 1.43153 184.913 1.31111C184.988 1.19069 185.076 1.08381 185.178 0.990482C185.312 0.874575 185.459 0.797805 185.62 0.763184C185.782 0.728562 185.937 0.675877 186.085 0.606634C186.202 0.544917 186.31 0.472663 186.409 0.391378C186.507 0.310092 186.615 0.249881 186.734 0.210743C186.906 0.1415 187.095 0.108384 187.299 0.111394C187.503 0.11591 187.692 0.117415 187.864 0.117415C187.981 0.117415 188.103 0.118921 188.23 0.123437C188.355 0.127952 188.474 0.149026 188.583 0.188164C188.608 0.19569 188.632 0.201711 188.659 0.206227C188.687 0.210743 188.713 0.219775 188.736 0.234828L188.818 0.328156C188.857 0.350735 188.888 0.382346 188.912 0.421483C188.952 0.475674 188.976 0.540401 188.988 0.61416C189.001 0.687919 189.01 0.755657 189.017 0.817374C189.033 0.949839 189.039 1.08381 189.036 1.21929C189.031 1.35476 189.03 1.50077 189.03 1.65582L189.028 1.65431ZM183.95 7.62579C183.848 7.63331 183.748 7.63934 183.65 7.64385C183.553 7.64837 183.455 7.66493 183.362 7.69654C183.347 7.70406 183.327 7.71008 183.303 7.7146C183.28 7.71912 183.26 7.72815 183.244 7.7432C183.212 7.75825 183.178 7.78384 183.143 7.81846C183.108 7.85309 183.079 7.88169 183.055 7.90577C183.015 7.95996 182.982 8.01415 182.954 8.06834C182.927 8.12253 182.893 8.17672 182.854 8.23091C182.846 8.23844 182.835 8.2565 182.825 8.2836C182.812 8.31069 182.799 8.32876 182.783 8.33628C182.776 8.34381 182.751 8.34531 182.713 8.34231C182.674 8.33779 182.654 8.33327 182.654 8.32424C182.646 8.31672 182.642 8.29865 182.642 8.27156V8.21887C182.634 8.15715 182.628 8.09694 182.624 8.03824C182.619 7.97953 182.617 7.92383 182.617 7.86964V6.37339C182.617 6.30716 182.625 6.24393 182.64 6.18071C182.648 6.16566 182.654 6.14157 182.659 6.11147C182.663 6.07986 182.668 6.06179 182.677 6.05276C182.692 6.04524 182.706 6.04373 182.718 6.04674C182.73 6.05126 182.739 6.05276 182.747 6.05276C182.762 6.05276 182.787 6.05126 182.817 6.04674C182.849 6.04223 182.872 6.04524 182.887 6.05276C182.902 6.06029 182.921 6.07835 182.94 6.10545C182.96 6.13254 182.974 6.15362 182.982 6.16867C183.076 6.28458 183.163 6.40952 183.241 6.54048C183.318 6.67294 183.413 6.78433 183.524 6.87766C183.618 6.9469 183.72 6.99658 183.83 7.02367C183.94 7.05077 184.046 7.07184 184.148 7.0884C184.196 7.0884 184.241 7.08991 184.284 7.09442C184.327 7.09894 184.372 7.10496 184.42 7.11249C184.435 7.12001 184.455 7.12453 184.479 7.12453C184.503 7.12453 184.519 7.12904 184.526 7.13657C184.534 7.1441 184.538 7.16366 184.538 7.19528C184.538 7.22689 184.543 7.24947 184.551 7.26452C184.551 7.27205 184.555 7.28559 184.563 7.30516C184.57 7.32473 184.57 7.34279 184.563 7.35785C184.563 7.36537 184.551 7.37742 184.528 7.39247C184.503 7.40752 184.485 7.42408 184.468 7.43913C184.398 7.49332 184.321 7.53397 184.238 7.56106C184.156 7.58816 184.06 7.60923 183.95 7.62428V7.62579ZM187.626 9.58116C187.477 9.58868 187.329 9.5947 187.185 9.59922C187.04 9.60374 186.892 9.60524 186.743 9.60524C186.626 9.60524 186.508 9.60374 186.396 9.59922C186.281 9.5947 186.166 9.58868 186.048 9.58116C185.899 9.5661 185.754 9.52998 185.613 9.47579C185.471 9.4216 185.357 9.33128 185.271 9.20784C185.216 9.11452 185.171 9.01216 185.136 8.89926C185.101 8.78636 185.075 8.67949 185.06 8.57864C185.037 8.4552 185.02 8.32876 185.012 8.20081C185.005 8.07286 185 7.94641 185 7.82298C185 7.64536 185.008 7.47375 185.024 7.31118C185.04 7.14861 185.075 6.98153 185.131 6.80992C185.171 6.7166 185.218 6.61725 185.273 6.51338C185.328 6.40801 185.39 6.3207 185.462 6.25146C185.477 6.23641 185.495 6.21985 185.515 6.2048C185.535 6.18974 185.549 6.1777 185.556 6.17018C185.571 6.16265 185.582 6.15512 185.585 6.1476C185.59 6.14007 185.594 6.13254 185.603 6.12351C185.619 6.12351 185.637 6.12803 185.657 6.13555C185.677 6.14308 185.69 6.15061 185.698 6.15813C185.713 6.15813 185.734 6.15964 185.763 6.16415C185.791 6.16867 185.809 6.1777 185.817 6.19275C185.832 6.20028 185.84 6.21835 185.84 6.24544C185.84 6.27254 185.844 6.29361 185.852 6.30866C185.867 6.37038 185.876 6.4336 185.876 6.49532V7.98555C185.876 8.08641 185.878 8.18274 185.882 8.27607C185.887 8.3694 185.9 8.45821 185.923 8.54401C185.931 8.56659 185.937 8.59068 185.942 8.61326C185.946 8.63584 185.951 8.65541 185.96 8.67196C186.038 8.83453 186.164 8.94743 186.336 9.00915C186.368 9.01667 186.399 9.0227 186.431 9.02721C186.463 9.03173 186.493 9.03323 186.525 9.03323C186.635 9.04828 186.744 9.05581 186.856 9.05581H187.745C187.812 9.05581 187.876 9.06334 187.94 9.07839C187.956 9.08592 187.98 9.09043 188.01 9.09043C188.041 9.09043 188.061 9.09796 188.07 9.11301C188.085 9.12054 188.096 9.13409 188.099 9.15366C188.103 9.17322 188.105 9.18677 188.105 9.1943C188.112 9.20182 188.123 9.21989 188.134 9.24698C188.146 9.27408 188.152 9.29515 188.152 9.3102C188.137 9.34182 188.105 9.36891 188.058 9.39149C188.035 9.43063 188.003 9.46073 187.963 9.48482C187.931 9.5074 187.884 9.52697 187.821 9.54352C187.759 9.55858 187.695 9.57062 187.633 9.57815L187.626 9.58116Z" fill="url(#paint13_linear_726_20)"/>
<defs>
<linearGradient id="paint0_linear_726_20" x1="18.8845" y1="0.0752869" x2="18.8845" y2="34.882" gradientUnits="userSpaceOnUse">
<stop stop-color="#FFEC3E"/>
<stop offset="1" stop-color="#FFB23E"/>
</linearGradient>
<linearGradient id="paint1_linear_726_20" x1="51.3726" y1="0.529877" x2="51.3726" y2="34.4049" gradientUnits="userSpaceOnUse">
<stop stop-color="#FFEC3E"/>
<stop offset="1" stop-color="#FFB23E"/>
</linearGradient>
<linearGradient id="paint2_linear_726_20" x1="85.7832" y1="0.529877" x2="85.7832" y2="34.4049" gradientUnits="userSpaceOnUse">
<stop stop-color="#FFEC3E"/>
<stop offset="1" stop-color="#FFB23E"/>
</linearGradient>
<linearGradient id="paint3_linear_726_20" x1="120.872" y1="0.0752869" x2="120.872" y2="34.8595" gradientUnits="userSpaceOnUse">
<stop stop-color="#FFEC3E"/>
<stop offset="1" stop-color="#FFB23E"/>
</linearGradient>
<linearGradient id="paint4_linear_726_20" x1="155.938" y1="0.529877" x2="155.938" y2="34.4064" gradientUnits="userSpaceOnUse">
<stop stop-color="#FFEC3E"/>
<stop offset="1" stop-color="#FFB23E"/>
</linearGradient>
<linearGradient id="paint5_linear_726_20" x1="17.0889" y1="0.00524902" x2="17.0889" y2="39.2851" gradientUnits="userSpaceOnUse">
<stop stop-color="#FFEC3E"/>
<stop offset="1" stop-color="#FFB23E"/>
</linearGradient>
<linearGradient id="paint6_linear_726_20" x1="47.5949" y1="0.297485" x2="47.5949" y2="40" gradientUnits="userSpaceOnUse">
<stop stop-color="#FFEC3E"/>
<stop offset="1" stop-color="#FFB23E"/>
</linearGradient>
<linearGradient id="paint7_linear_726_20" x1="82.2025" y1="0.576141" x2="82.2025" y2="38.7446" gradientUnits="userSpaceOnUse">
<stop stop-color="#FFEC3E"/>
<stop offset="1" stop-color="#FFB23E"/>
</linearGradient>
<linearGradient id="paint8_linear_726_20" x1="116.345" y1="0.00158691" x2="116.345" y2="39.6864" gradientUnits="userSpaceOnUse">
<stop stop-color="#FFEC3E"/>
<stop offset="1" stop-color="#FFB23E"/>
</linearGradient>
<linearGradient id="paint9_linear_726_20" x1="151.622" y1="0.432831" x2="151.622" y2="37.6713" gradientUnits="userSpaceOnUse">
<stop stop-color="#FFEC3E"/>
<stop offset="1" stop-color="#FFB23E"/>
</linearGradient>
<linearGradient id="paint10_linear_726_20" x1="176.013" y1="0.325134" x2="176.013" y2="8.79388" gradientUnits="userSpaceOnUse">
<stop stop-color="#FFEC3E"/>
<stop offset="1" stop-color="#FFB23E"/>
</linearGradient>
<linearGradient id="paint11_linear_726_20" x1="185.349" y1="0.325134" x2="185.349" y2="8.79388" gradientUnits="userSpaceOnUse">
<stop stop-color="#FFEC3E"/>
<stop offset="1" stop-color="#FFB23E"/>
</linearGradient>
<linearGradient id="paint12_linear_726_20" x1="175.457" y1="0.216827" x2="175.457" y2="9.33514" gradientUnits="userSpaceOnUse">
<stop stop-color="#FFEC3E"/>
<stop offset="1" stop-color="#FFB23E"/>
</linearGradient>
<linearGradient id="paint13_linear_726_20" x1="184.009" y1="0.111206" x2="184.009" y2="9.60825" gradientUnits="userSpaceOnUse">
<stop stop-color="#FFEC3E"/>
<stop offset="1" stop-color="#FFB23E"/>
</linearGradient>
</defs>
</svg>
