<svg width="842" height="383" viewBox="0 0 842 383" fill="none" xmlns="http://www.w3.org/2000/svg">
<path opacity="0.5" d="M333.803 367.543L309.974 348.899L306.203 350.509L316.604 374.882L300.876 381.594L273.323 317.027L299.72 305.762C304.81 303.59 309.512 302.635 313.827 302.896C318.204 303.13 321.948 304.431 325.061 306.8C328.147 309.107 330.502 312.161 332.124 315.963C333.956 320.255 334.365 324.611 333.351 329.03C332.399 333.423 329.863 337.332 325.743 340.757L351.554 359.968L333.803 367.543ZM301.454 339.379L311.203 335.219C314.085 333.989 315.93 332.368 316.739 330.356C317.609 328.318 317.494 326.011 316.395 323.436C315.348 320.983 313.788 319.366 311.715 318.583C309.703 317.775 307.256 317.986 304.374 319.215L294.625 323.376L301.454 339.379ZM354.428 297.312L360.001 310.373L381.064 301.385L386.245 313.526L365.182 322.514L371.226 336.678L395.048 326.513L400.425 339.113L360.876 355.99L333.323 291.423L372.873 274.546L378.25 287.147L354.428 297.312ZM441.161 269.978C442.757 273.718 443.364 277.518 442.981 281.378C442.573 285.177 440.996 288.785 438.251 292.203C435.505 295.622 431.496 298.456 426.223 300.706L416.473 304.867L426.364 328.045L410.636 334.756L383.084 270.189L408.561 259.317C413.712 257.119 418.445 256.151 422.76 256.411C427.075 256.672 430.789 257.986 433.902 260.355C437.014 262.723 439.434 265.931 441.161 269.978ZM419.689 288.708C422.694 287.426 424.631 285.766 425.501 283.727C426.371 281.689 426.256 279.382 425.157 276.807C424.058 274.232 422.472 272.553 420.399 271.771C418.325 270.988 415.786 271.238 412.782 272.52L404.228 276.17L411.136 292.358L419.689 288.708ZM500.958 296.213L477.129 277.57L473.358 279.179L483.759 303.553L468.031 310.264L440.479 245.697L466.876 234.433C471.965 232.261 476.667 231.306 480.983 231.566C485.359 231.801 489.104 233.102 492.216 235.47C495.303 237.777 497.657 240.832 499.28 244.634C501.111 248.926 501.52 253.281 500.507 257.7C499.554 262.093 497.018 266.002 492.899 269.427L518.71 288.638L500.958 296.213ZM468.609 268.05L478.359 263.89C481.24 262.66 483.086 261.039 483.894 259.027C484.764 256.989 484.649 254.682 483.55 252.107C482.504 249.654 480.944 248.036 478.87 247.254C476.858 246.446 474.411 246.656 471.529 247.886L461.78 252.046L468.609 268.05ZM558.842 272.274C552.771 274.865 546.59 275.835 540.297 275.187C534.065 274.512 528.374 272.301 523.224 268.555C518.109 264.722 514.204 259.647 511.509 253.332C508.814 247.016 507.865 240.716 508.663 234.432C509.522 228.122 511.864 222.484 515.688 217.518C519.574 212.525 524.552 208.734 530.622 206.144C536.693 203.553 542.844 202.595 549.075 203.271C555.368 203.919 561.028 206.143 566.056 209.941C571.145 213.713 575.037 218.757 577.732 225.073C580.427 231.388 581.389 237.719 580.617 244.064C579.819 250.348 577.508 255.973 573.684 260.939C569.86 265.906 564.912 269.684 558.842 272.274ZM552.719 257.926C557.87 255.728 561.245 252.258 562.846 247.516C564.508 242.748 564.135 237.543 561.728 231.902C559.294 226.199 555.795 222.329 551.228 220.291C546.697 218.166 541.856 218.202 536.706 220.4C531.494 222.624 528.044 226.089 526.356 230.796C524.729 235.477 525.145 240.699 527.605 246.463C530.038 252.166 533.52 256.08 538.052 258.205C542.618 260.243 547.507 260.15 552.719 257.926ZM596.974 178.917C603.78 176.013 610.303 174.824 616.544 175.35C622.784 175.876 628.331 178.003 633.184 181.731C638.071 185.371 641.876 190.38 644.597 196.757C647.292 203.073 648.276 209.285 647.548 215.394C646.882 221.477 644.55 226.966 640.55 231.862C636.612 236.732 631.271 240.606 624.526 243.484L600.336 253.806L572.784 189.239L596.974 178.917ZM617.705 230.303C623.653 227.765 627.589 224.165 629.514 219.502C631.438 214.839 631.131 209.534 628.593 203.586C626.055 197.639 622.424 193.716 617.7 191.817C612.976 189.919 607.64 190.239 601.692 192.777L594.242 195.956L610.255 233.483L617.705 230.303ZM655.062 154.129L671.546 192.759C673.195 196.622 675.414 199.19 678.205 200.464C680.995 201.738 684.23 201.59 687.909 200.02C691.588 198.45 693.964 196.204 695.036 193.282C696.109 190.36 695.821 186.967 694.173 183.104L677.688 144.474L693.416 137.763L709.861 176.301C712.321 182.064 713.175 187.462 712.423 192.495C711.671 197.527 709.642 201.944 706.336 205.747C703.091 209.524 698.924 212.498 693.834 214.67C688.745 216.841 683.758 217.81 678.874 217.574C674.025 217.252 669.585 215.595 665.554 212.603C661.497 209.551 658.239 205.142 655.779 199.379L639.334 160.841L655.062 154.129ZM715.53 166.38C712.809 160.003 711.768 153.742 712.408 147.598C713.022 141.392 715.192 135.863 718.92 131.011C722.683 126.071 727.692 122.266 733.947 119.598C741.611 116.327 749.036 115.551 756.22 117.269C763.404 118.987 769.407 122.949 774.23 129.154L756.938 136.533C754.499 134.384 751.783 133.115 748.79 132.725C745.858 132.309 742.89 132.742 739.885 134.024C735.041 136.091 731.837 139.452 730.271 144.107C728.706 148.761 729.127 153.909 731.534 159.55C733.941 165.192 737.366 169.057 741.81 171.148C746.254 173.238 750.898 173.25 755.742 171.183C758.746 169.9 761.113 168.057 762.841 165.652C764.63 163.222 765.593 160.383 765.73 157.135L783.021 149.756C784.165 157.532 782.871 164.607 779.141 170.983C775.384 177.297 769.674 182.09 762.009 185.36C755.755 188.029 749.556 189.044 743.411 188.404C737.302 187.676 731.809 185.418 726.93 181.629C722.051 177.84 718.251 172.757 715.53 166.38ZM795.625 109.043L801.198 122.103L822.261 113.116L827.442 125.256L806.379 134.244L812.423 148.409L836.245 138.243L841.622 150.844L802.072 167.721L774.52 103.154L814.07 86.2768L819.447 98.8775L795.625 109.043Z" fill="url(#paint0_linear_0_1)"/>
<path opacity="0.3" d="M108.393 312.356C105.672 305.979 104.631 299.719 105.271 293.575C105.885 287.369 108.055 281.84 111.783 276.988C115.546 272.048 120.555 268.243 126.81 265.574C134.474 262.304 141.899 261.527 149.083 263.245C156.267 264.964 162.27 268.925 167.093 275.131L149.801 282.509C147.362 280.361 144.646 279.092 141.653 278.702C138.721 278.286 135.753 278.719 132.748 280.001C127.904 282.068 124.7 285.429 123.134 290.083C121.569 294.738 121.99 299.886 124.397 305.527C126.804 311.168 130.229 315.034 134.673 317.124C139.117 319.215 143.761 319.226 148.605 317.159C151.609 315.877 153.976 314.034 155.704 311.629C157.493 309.198 158.456 306.359 158.593 303.112L175.884 295.733C177.028 303.508 175.734 310.584 172.004 316.959C168.247 323.274 162.537 328.066 154.872 331.337C148.618 334.006 142.419 335.02 136.274 334.381C130.165 333.653 124.672 331.395 119.793 327.606C114.914 323.816 111.114 318.733 108.393 312.356ZM225.746 301.311C219.676 303.901 213.494 304.872 207.201 304.223C200.97 303.548 195.279 301.338 190.129 297.592C185.014 293.758 181.109 288.684 178.413 282.368C175.718 276.052 174.77 269.753 175.567 263.469C176.426 257.159 178.768 251.52 182.592 246.554C186.478 241.562 191.456 237.77 197.527 235.18C203.597 232.59 209.748 231.632 215.98 232.307C222.273 232.956 227.933 235.179 232.96 238.978C238.049 242.75 241.941 247.794 244.636 254.109C247.331 260.425 248.293 266.755 247.522 273.101C246.724 279.385 244.413 285.01 240.588 289.976C236.764 294.942 231.817 298.72 225.746 301.311ZM219.623 286.963C224.774 284.765 228.15 281.295 229.75 276.553C231.412 271.784 231.04 266.58 228.632 260.938C226.199 255.236 222.699 251.366 218.133 249.328C213.602 247.202 208.761 247.238 203.61 249.436C198.398 251.66 194.948 255.126 193.26 259.833C191.633 264.514 192.05 269.736 194.509 275.5C196.943 281.202 200.425 285.116 204.956 287.242C209.522 289.28 214.411 289.187 219.623 286.963ZM312.809 187.073L340.362 251.641L324.634 258.352L308.11 219.63L310.193 264.514L297.501 269.93L266.406 237.318L282.969 276.131L267.241 282.843L239.688 218.276L258.268 210.348L295.461 247.316L294.322 194.962L312.809 187.073ZM382.197 182.036C383.793 185.776 384.4 189.576 384.017 193.436C383.609 197.235 382.032 200.843 379.286 204.261C376.541 207.68 372.532 210.514 367.258 212.764L357.509 216.925L367.4 240.103L351.672 246.814L324.119 182.247L349.597 171.375C354.747 169.177 359.48 168.209 363.795 168.469C368.111 168.73 371.825 170.044 374.937 172.413C378.05 174.781 380.47 177.989 382.197 182.036ZM360.725 200.766C363.73 199.484 365.667 197.824 366.537 195.785C367.406 193.747 367.292 191.44 366.193 188.865C365.094 186.29 363.508 184.611 361.434 183.829C359.361 183.046 356.822 183.296 353.817 184.578L345.264 188.228L352.171 204.416L360.725 200.766ZM444.394 193.766L420.296 204.049L421.3 217.102L404.836 224.128L400.645 149.592L418.857 141.82L469.771 196.418L453.123 203.522L444.394 193.766ZM435.166 183.352L417.077 163.129L419.254 190.142L435.166 183.352ZM509.808 179.333L485.979 160.69L482.208 162.299L492.609 186.673L476.881 193.384L449.329 128.817L475.726 117.553C480.815 115.381 485.517 114.426 489.833 114.686C494.209 114.921 497.954 116.222 501.066 118.59C504.153 120.897 506.507 123.952 508.13 127.754C509.961 132.046 510.37 136.401 509.357 140.82C508.404 145.213 505.868 149.122 501.749 152.547L527.56 171.758L509.808 179.333ZM477.459 151.17L487.209 147.01C490.09 145.78 491.936 144.159 492.744 142.147C493.614 140.109 493.499 137.802 492.4 135.227C491.354 132.774 489.794 131.156 487.72 130.374C485.708 129.566 483.261 129.776 480.379 131.006L470.63 135.166L477.459 151.17ZM555.776 83.3934L561.154 95.9941L544.046 103.294L566.221 155.261L550.493 161.972L528.318 110.006L511.211 117.306L505.834 104.705L555.776 83.3934ZM584.775 85.9143L590.348 98.9749L611.411 89.987L616.591 102.128L595.529 111.116L601.573 125.28L625.395 115.115L630.772 127.715L591.222 144.592L563.67 80.025L603.22 63.1482L608.597 75.7489L584.775 85.9143Z" fill="url(#paint1_linear_0_1)"/>
<path opacity="0.15" d="M19.5123 271.713C14.7909 273.727 10.2329 274.766 5.83844 274.83C1.44395 274.893 -2.52872 273.906 -6.07958 271.87C-9.56911 269.807 -12.2779 266.687 -14.206 262.508L2.53365 255.365C3.79937 257.651 5.41212 259.138 7.3719 259.824C9.30551 260.448 11.4067 260.276 13.6754 259.308C16.0055 258.314 17.6226 257.008 18.5268 255.39C19.4048 253.71 19.4382 251.92 18.6271 250.019C17.9467 248.425 16.8323 247.342 15.2838 246.771C13.7966 246.173 12.112 245.878 10.2299 245.883C8.40913 245.863 5.87464 246.038 2.62641 246.41C-2.09264 246.901 -6.04522 247.066 -9.23134 246.903C-12.4175 246.741 -15.4973 245.808 -18.471 244.105C-21.4446 242.402 -23.7949 239.527 -25.5218 235.481C-28.086 229.471 -27.9109 223.852 -24.9965 218.622C-22.1082 213.33 -17.169 209.193 -10.1789 206.21C-3.06606 203.175 3.39974 202.445 9.21854 204.021C15.0112 205.536 19.356 209.263 22.253 215.203L5.23741 222.464C4.22515 220.431 2.76529 219.133 0.857852 218.57C-1.07576 217.946 -3.14627 218.104 -5.3537 219.046C-7.25453 219.857 -8.56505 221.033 -9.28527 222.572C-10.0316 224.05 -9.99927 225.74 -9.18814 227.641C-8.29851 229.726 -6.62404 230.932 -4.16475 231.26C-1.70545 231.587 1.89681 231.536 6.64203 231.106C11.4134 230.737 15.3615 230.647 18.4863 230.835C21.6724 230.998 24.7392 231.9 27.6867 233.541C30.6341 235.183 32.9321 237.935 34.5805 241.798C36.1504 245.477 36.626 249.225 36.0073 253.04C35.4499 256.83 33.7724 260.373 30.9748 263.668C28.1772 266.964 24.3564 269.646 19.5123 271.713ZM40.638 185.612L68.1903 250.18L52.4624 256.891L24.9101 192.324L40.638 185.612ZM125.157 149.546L152.709 214.113L136.981 220.825L120.458 182.103L122.541 226.987L109.848 232.403L78.7532 199.79L95.316 238.604L79.5881 245.316L52.0358 180.749L70.6149 172.821L107.809 209.789L106.669 157.435L125.157 149.546ZM194.544 144.509C196.14 148.249 196.747 152.049 196.365 155.909C195.956 159.707 194.379 163.316 191.634 166.734C188.888 170.153 184.879 172.987 179.606 175.237L169.856 179.398L179.747 202.576L164.019 209.287L136.467 144.72L161.944 133.848C167.095 131.65 171.828 130.682 176.143 130.942C180.458 131.203 184.172 132.517 187.285 134.886C190.397 137.254 192.817 140.462 194.544 144.509ZM173.072 163.239C176.077 161.957 178.014 160.296 178.884 158.258C179.754 156.22 179.639 153.913 178.54 151.338C177.441 148.763 175.855 147.084 173.782 146.301C171.708 145.519 169.169 145.769 166.165 147.051L157.611 150.701L164.519 166.889L173.072 163.239ZM231.961 165.943L252.564 157.151L257.745 169.292L221.414 184.795L193.862 120.228L209.59 113.517L231.961 165.943ZM253.422 94.8123L280.974 159.379L265.247 166.091L237.694 101.524L253.422 94.8123ZM306.853 72.012L312.23 84.6127L285.925 95.8378L291.734 109.45L311.416 101.051L316.636 113.284L296.954 121.683L308.1 147.804L292.372 154.516L264.82 89.9485L306.853 72.012ZM330.847 61.7731L358.399 126.34L342.672 133.052L315.119 68.4846L330.847 61.7731ZM353.315 90.2392C350.593 83.8622 349.553 77.6016 350.192 71.4574C350.806 65.252 352.977 59.723 356.705 54.8705C360.468 49.9304 365.477 46.126 371.731 43.4571C379.396 40.1864 386.82 39.4102 394.004 41.1284C401.189 42.8466 407.192 46.8083 412.014 53.0135L394.723 60.3922C392.284 58.2437 389.568 56.9745 386.575 56.5847C383.643 56.1687 380.674 56.6017 377.67 57.8838C372.826 59.9509 369.621 63.3118 368.056 67.9663C366.49 72.6209 366.911 77.7688 369.318 83.4099C371.726 89.0511 375.151 92.9169 379.595 95.0072C384.038 97.0976 388.682 97.1092 393.526 95.0421C396.531 93.76 398.897 91.9166 400.625 89.5121C402.415 87.0813 403.378 84.2422 403.514 80.9948L420.806 73.6161C421.949 81.3912 420.656 88.4666 416.925 94.8423C413.169 101.157 407.458 105.949 399.794 109.22C393.539 111.889 387.34 112.903 381.196 112.263C375.087 111.536 369.593 109.278 364.714 105.489C359.836 101.699 356.036 96.6162 353.315 90.2392ZM475.184 63.0237L451.086 73.3068L452.09 86.3602L435.626 93.3857L431.436 18.8495L449.647 11.0783L500.561 65.6763L483.913 72.7803L475.184 63.0237ZM465.956 52.6098L447.867 32.3866L450.044 59.3998L465.956 52.6098Z" fill="url(#paint2_linear_0_1)"/>
<defs>
<linearGradient id="paint0_linear_0_1" x1="281.436" y1="351.835" x2="859.795" y2="215.413" gradientUnits="userSpaceOnUse">
<stop stop-color="white" stop-opacity="0.37"/>
<stop offset="0.770619" stop-color="#FFEC3E" stop-opacity="0.34"/>
<stop offset="1" stop-color="#FFB23E" stop-opacity="0.13"/>
</linearGradient>
<linearGradient id="paint1_linear_0_1" x1="105.436" y1="313.835" x2="520.173" y2="195.036" gradientUnits="userSpaceOnUse">
<stop stop-color="white" stop-opacity="0.37"/>
<stop offset="0.770619" stop-color="#FFEC3E" stop-opacity="0.34"/>
<stop offset="1" stop-color="#FFB23E" stop-opacity="0.13"/>
</linearGradient>
<linearGradient id="paint2_linear_0_1" x1="-23.5638" y1="251.28" x2="430.336" y2="126.832" gradientUnits="userSpaceOnUse">
<stop stop-color="white" stop-opacity="0.37"/>
<stop offset="0.770619" stop-color="#FFEC3E" stop-opacity="0.34"/>
<stop offset="1" stop-color="#FFB23E" stop-opacity="0.13"/>
</linearGradient>
</defs>
</svg>
