<svg width="1239" height="232" viewBox="0 0 1239 232" fill="none" xmlns="http://www.w3.org/2000/svg">
<path d="M0 62.8764C0 39.1964 19.2018 20 42.8885 20H1196.11C1219.8 20 1239 39.1964 1239 62.8764V189.124C1239 212.804 1219.8 232 1196.11 232H42.8885C19.2018 232 0 212.804 0 189.124V62.8764Z" fill="url(#paint0_linear_1421_394)" fill-opacity="0.03"/>
<g filter="url(#filter0_d_1421_394)">
<path d="M581.419 111.217C579.054 112.643 578.292 115.716 579.717 118.081C581.143 120.446 584.216 121.208 586.581 119.783L581.419 111.217ZM698.5 46.5L701.556 42.5428L698.849 40.452L695.919 42.2175L698.5 46.5ZM872 180.5L868.944 184.457L871.809 186.67L874.806 184.638L872 180.5ZM586.581 119.783L701.081 50.7825L695.919 42.2175L581.419 111.217L586.581 119.783ZM695.444 50.4572L868.944 184.457L875.056 176.543L701.556 42.5428L695.444 50.4572ZM874.806 184.638L1020.81 85.6383L1015.19 77.3617L869.194 176.362L874.806 184.638Z" fill="url(#paint1_linear_1421_394)"/>
</g>
<path d="M1018.51 64.1295C1010.42 64.1295 1003.9 70.7688 1003.9 79C1003.9 87.2312 1010.42 93.8705 1018.51 93.8705C1026.59 93.8705 1033.12 87.2312 1033.12 79C1033.12 70.7688 1026.59 64.1295 1018.51 64.1295ZM1018.51 88.6677C1013.28 88.6677 1009.01 84.3321 1009.01 79C1009.01 73.6679 1013.27 69.3323 1018.51 69.3323C1023.75 69.3323 1028.01 73.6679 1028.01 79C1028.01 84.3321 1023.73 88.6677 1018.51 88.6677ZM1037.12 63.5213C1037.12 65.4496 1035.6 66.9897 1033.71 66.9897C1031.82 66.9897 1030.31 65.4367 1030.31 63.5213C1030.31 61.6058 1031.83 60.0528 1033.71 60.0528C1035.6 60.0528 1037.12 61.6058 1037.12 63.5213ZM1046.8 67.0415C1046.58 62.3953 1045.54 58.2797 1042.2 54.8889C1038.86 51.498 1034.82 50.4368 1030.26 50.2038C1025.55 49.9321 1011.45 49.9321 1006.74 50.2038C1002.19 50.4239 998.148 51.4851 994.804 54.8759C991.459 58.2668 990.429 62.3823 990.2 67.0286C989.933 71.8171 989.933 86.1699 990.2 90.9585C990.416 95.6047 991.459 99.7203 994.804 103.111C998.148 106.502 1002.18 107.563 1006.74 107.796C1011.45 108.068 1025.55 108.068 1030.26 107.796C1034.82 107.576 1038.86 106.515 1042.2 103.111C1045.53 99.7203 1046.57 95.6047 1046.8 90.9585C1047.07 86.1699 1047.07 71.8301 1046.8 67.0415ZM1040.72 96.0965C1039.73 98.6332 1037.81 100.587 1035.3 101.61C1031.55 103.124 1022.65 102.775 1018.51 102.775C1014.36 102.775 1005.45 103.111 1001.71 101.61C999.216 100.6 997.296 98.6461 996.291 96.0965C994.804 92.2786 995.147 83.2191 995.147 79C995.147 74.7809 994.816 65.7085 996.291 61.9035C997.283 59.3668 999.203 57.4126 1001.71 56.3902C1005.46 54.8759 1014.36 55.2254 1018.51 55.2254C1022.65 55.2254 1031.57 54.8889 1035.3 56.3902C1037.8 57.3996 1039.72 59.3539 1040.72 61.9035C1042.21 65.7214 1041.87 74.7809 1041.87 79C1041.87 83.2191 1042.21 92.2915 1040.72 96.0965Z" fill="url(#paint2_linear_1421_394)"/>
<path d="M913.224 193.517C912.246 197.643 909.366 200.893 905.709 201.996C899.08 204 872.5 204 872.5 204C872.5 204 845.92 204 839.291 201.996C835.634 200.893 832.754 197.643 831.776 193.517C830 186.037 830 170.432 830 170.432C830 170.432 830 154.827 831.776 147.348C832.754 143.221 835.634 140.107 839.291 139.004C845.92 137 872.5 137 872.5 137C872.5 137 899.08 137 905.709 139.004C909.366 140.107 912.246 143.221 913.224 147.348C915 154.827 915 170.432 915 170.432C915 170.432 915 186.037 913.224 193.517ZM863.807 156.264V184.601L886.023 170.432L863.807 156.264Z" fill="url(#paint3_linear_1421_394)"/>
<path d="M701.531 0.453573C675.791 0.203194 654.7 20.7829 654.451 46.3921C654.202 72.0013 674.889 92.9873 700.628 93.2377C726.368 93.4881 747.459 72.9084 747.708 47.2992C747.957 21.6901 727.271 0.703953 701.531 0.453573ZM719.8 68.8977C719.011 68.89 718.524 68.6421 717.795 68.2047C706.131 61.0569 692.484 60.6248 678.976 63.2436C678.241 63.4235 677.279 63.7135 676.734 63.7082C674.91 63.6904 673.778 62.2389 673.792 60.7237C673.811 58.7969 674.967 57.8914 676.38 57.6058C691.812 54.3697 707.546 54.8221 720.892 62.9404C722.032 63.6811 722.703 64.3424 722.686 66.0447C722.67 67.747 721.323 68.9125 719.8 68.8977ZM724.977 56.6754C724 56.6659 723.346 56.2293 722.672 55.8673C710.989 48.8316 693.492 45.8739 677.865 49.9312C676.96 50.1656 676.469 50.404 675.623 50.3958C673.611 50.3762 671.991 48.7328 672.01 46.7313C672.03 44.7297 673.021 43.411 674.962 42.8874C680.203 41.4791 685.554 40.4461 693.375 40.5221C705.578 40.6408 717.337 43.7673 726.572 49.3573C728.086 50.27 728.676 51.4357 728.66 53.0632C728.622 55.0833 727.027 56.6954 724.977 56.6754ZM730.945 42.4778C729.967 42.4683 729.368 42.2193 728.526 41.7247C715.217 33.6442 691.301 31.5033 675.766 35.6551C675.087 35.8356 674.238 36.1266 673.336 36.1179C670.854 36.0937 668.974 34.1485 668.998 31.6605C669.023 29.1164 670.616 27.6914 672.313 27.2215C678.95 25.3591 686.367 24.5145 694.433 24.593C708.158 24.7265 722.514 27.7098 732.965 33.9104C734.423 34.7664 735.371 35.9356 735.349 38.1616C735.324 40.7057 733.238 42.5001 730.945 42.4778Z" fill="url(#paint4_linear_1421_394)"/>
<defs>
<filter id="filter0_d_1421_394" x="574.999" y="40.4521" width="449.807" height="154.218" filterUnits="userSpaceOnUse" color-interpolation-filters="sRGB">
<feFlood flood-opacity="0" result="BackgroundImageFix"/>
<feColorMatrix in="SourceAlpha" type="matrix" values="0 0 0 0 0 0 0 0 0 0 0 0 0 0 0 0 0 0 127 0" result="hardAlpha"/>
<feOffset dy="4"/>
<feGaussianBlur stdDeviation="2"/>
<feComposite in2="hardAlpha" operator="out"/>
<feColorMatrix type="matrix" values="0 0 0 0 0 0 0 0 0 0 0 0 0 0 0 0 0 0 0.25 0"/>
<feBlend mode="normal" in2="BackgroundImageFix" result="effect1_dropShadow_1421_394"/>
<feBlend mode="normal" in="SourceGraphic" in2="effect1_dropShadow_1421_394" result="shape"/>
</filter>
<linearGradient id="paint0_linear_1421_394" x1="4.77456" y1="122.908" x2="1234.47" y2="203.26" gradientUnits="userSpaceOnUse">
<stop stop-color="#D9D9D9"/>
<stop offset="1" stop-color="#D9D9D9" stop-opacity="0.56"/>
</linearGradient>
<linearGradient id="paint1_linear_1421_394" x1="896.84" y1="180.675" x2="862.831" y2="40.541" gradientUnits="userSpaceOnUse">
<stop stop-color="white" stop-opacity="0.35"/>
<stop offset="1" stop-color="#595959"/>
</linearGradient>
<linearGradient id="paint2_linear_1421_394" x1="1018.5" y1="50" x2="1001.5" y2="108" gradientUnits="userSpaceOnUse">
<stop stop-color="#FFEC3E"/>
<stop offset="1" stop-color="#FFB23E"/>
</linearGradient>
<linearGradient id="paint3_linear_1421_394" x1="880.673" y1="137" x2="865.153" y2="204.002" gradientUnits="userSpaceOnUse">
<stop stop-color="#FFEC3E"/>
<stop offset="1" stop-color="#FFB23E"/>
</linearGradient>
<linearGradient id="paint4_linear_1421_394" x1="740.464" y1="19.7692" x2="661.826" y2="57.9896" gradientUnits="userSpaceOnUse">
<stop stop-color="#FFEC3E"/>
<stop offset="1" stop-color="#FFB23E"/>
</linearGradient>
</defs>
</svg>
