<svg width="1239" height="232" viewBox="0 0 1239 232" fill="none" xmlns="http://www.w3.org/2000/svg">
<path d="M0 62.8764C0 39.1964 19.2018 20 42.8885 20H1196.11C1219.8 20 1239 39.1964 1239 62.8764V189.124C1239 212.804 1219.8 232 1196.11 232H42.8885C19.2018 232 0 212.804 0 189.124V62.8764Z" fill="url(#paint0_linear_0_1)" fill-opacity="0.03"/>
<g filter="url(#filter0_d_0_1)">
<path d="M581.419 111.217C579.054 112.643 578.292 115.716 579.717 118.081C581.143 120.446 584.216 121.208 586.581 119.783L581.419 111.217ZM698.5 46.5L701.556 42.5428L698.849 40.452L695.919 42.2175L698.5 46.5ZM872 180.5L868.944 184.457L871.809 186.67L874.806 184.638L872 180.5ZM586.581 119.783L701.081 50.7825L695.919 42.2175L581.419 111.217L586.581 119.783ZM695.444 50.4572L868.944 184.457L875.056 176.543L701.556 42.5428L695.444 50.4572ZM874.806 184.638L1020.81 85.6383L1015.19 77.3617L869.194 176.362L874.806 184.638Z" fill="url(#paint1_linear_0_1)"/>
</g>
<path d="M1018.51 64.1295C1010.42 64.1295 1003.9 70.7688 1003.9 79C1003.9 87.2312 1010.42 93.8705 1018.51 93.8705C1026.59 93.8705 1033.12 87.2312 1033.12 79C1033.12 70.7688 1026.59 64.1295 1018.51 64.1295ZM1018.51 88.6677C1013.28 88.6677 1009.01 84.3321 1009.01 79C1009.01 73.6679 1013.27 69.3323 1018.51 69.3323C1023.75 69.3323 1028.01 73.6679 1028.01 79C1028.01 84.3321 1023.73 88.6677 1018.51 88.6677ZM1037.12 63.5213C1037.12 65.4496 1035.6 66.9897 1033.71 66.9897C1031.82 66.9897 1030.31 65.4367 1030.31 63.5213C1030.31 61.6058 1031.83 60.0528 1033.71 60.0528C1035.6 60.0528 1037.12 61.6058 1037.12 63.5213ZM1046.8 67.0415C1046.58 62.3953 1045.54 58.2797 1042.2 54.8889C1038.86 51.498 1034.82 50.4368 1030.26 50.2038C1025.55 49.9321 1011.45 49.9321 1006.74 50.2038C1002.19 50.4239 998.148 51.4851 994.804 54.8759C991.459 58.2668 990.429 62.3823 990.2 67.0286C989.933 71.8171 989.933 86.1699 990.2 90.9585C990.416 95.6047 991.459 99.7203 994.804 103.111C998.148 106.502 1002.18 107.563 1006.74 107.796C1011.45 108.068 1025.55 108.068 1030.26 107.796C1034.82 107.576 1038.86 106.515 1042.2 103.111C1045.53 99.7203 1046.57 95.6047 1046.8 90.9585C1047.07 86.1699 1047.07 71.8301 1046.8 67.0415ZM1040.72 96.0965C1039.73 98.6332 1037.81 100.587 1035.3 101.61C1031.55 103.124 1022.65 102.775 1018.51 102.775C1014.36 102.775 1005.45 103.111 1001.71 101.61C999.216 100.6 997.296 98.6461 996.291 96.0965C994.804 92.2786 995.147 83.2191 995.147 79C995.147 74.7809 994.816 65.7085 996.291 61.9035C997.283 59.3668 999.203 57.4126 1001.71 56.3902C1005.46 54.8759 1014.36 55.2254 1018.51 55.2254C1022.65 55.2254 1031.57 54.8889 1035.3 56.3902C1037.8 57.3996 1039.72 59.3539 1040.72 61.9035C1042.21 65.7214 1041.87 74.7809 1041.87 79C1041.87 83.2191 1042.21 92.2915 1040.72 96.0965Z" fill="url(#paint2_linear_0_1)"/>
<path d="M913.224 193.517C912.246 197.643 909.366 200.893 905.709 201.996C899.08 204 872.5 204 872.5 204C872.5 204 845.92 204 839.291 201.996C835.634 200.893 832.754 197.643 831.776 193.517C830 186.037 830 170.432 830 170.432C830 170.432 830 154.827 831.776 147.348C832.754 143.221 835.634 140.107 839.291 139.004C845.92 137 872.5 137 872.5 137C872.5 137 899.08 137 905.709 139.004C909.366 140.107 912.246 143.221 913.224 147.348C915 154.827 915 170.432 915 170.432C915 170.432 915 186.037 913.224 193.517ZM863.807 156.264V184.601L886.023 170.432L863.807 156.264Z" fill="url(#paint3_linear_0_1)"/>
<path d="M701.531 0.453573C675.791 0.203194 654.7 20.7829 654.451 46.3921C654.202 72.0013 674.889 92.9873 700.628 93.2377C726.368 93.4881 747.459 72.9084 747.708 47.2992C747.957 21.6901 727.271 0.703953 701.531 0.453573ZM719.8 68.8977C719.011 68.89 718.524 68.6421 717.795 68.2047C706.131 61.0569 692.484 60.6248 678.976 63.2436C678.241 63.4235 677.279 63.7135 676.734 63.7082C674.91 63.6904 673.778 62.2389 673.792 60.7237C673.811 58.7969 674.967 57.8914 676.38 57.6058C691.812 54.3697 707.546 54.8221 720.892 62.9404C722.032 63.6811 722.703 64.3424 722.686 66.0447C722.67 67.747 721.323 68.9125 719.8 68.8977ZM724.977 56.6754C724 56.6659 723.346 56.2293 722.672 55.8673C710.989 48.8316 693.492 45.8739 677.865 49.9312C676.96 50.1656 676.469 50.404 675.623 50.3958C673.611 50.3762 671.991 48.7328 672.01 46.7313C672.03 44.7297 673.021 43.411 674.962 42.8874C680.203 41.4791 685.554 40.4461 693.375 40.5221C705.578 40.6408 717.337 43.7673 726.572 49.3573C728.086 50.27 728.676 51.4357 728.66 53.0632C728.622 55.0833 727.027 56.6954 724.977 56.6754ZM730.945 42.4778C729.967 42.4683 729.368 42.2193 728.526 41.7247C715.217 33.6442 691.301 31.5033 675.766 35.6551C675.087 35.8356 674.238 36.1266 673.336 36.1179C670.854 36.0937 668.974 34.1485 668.998 31.6605C669.023 29.1164 670.616 27.6914 672.313 27.2215C678.95 25.3591 686.367 24.5145 694.433 24.593C708.158 24.7265 722.514 27.7098 732.965 33.9104C734.423 34.7664 735.371 35.9356 735.349 38.1616C735.324 40.7057 733.238 42.5001 730.945 42.4778Z" fill="url(#paint4_linear_0_1)"/>
<path d="M220.43 124.312C220.014 123.549 219.442 122.969 218.714 122.57C217.986 122.171 217.137 121.972 216.166 121.972C215.091 121.972 214.138 122.215 213.306 122.7C212.474 123.185 211.824 123.879 211.356 124.78C210.888 125.681 210.654 126.721 210.654 127.9C210.654 129.113 210.888 130.171 211.356 131.072C211.841 131.973 212.509 132.667 213.358 133.152C214.207 133.637 215.195 133.88 216.322 133.88C217.709 133.88 218.844 133.516 219.728 132.788C220.612 132.043 221.193 131.011 221.47 129.694H215.23V126.912H225.058V130.084C224.815 131.349 224.295 132.519 223.498 133.594C222.701 134.669 221.669 135.535 220.404 136.194C219.156 136.835 217.752 137.156 216.192 137.156C214.441 137.156 212.855 136.766 211.434 135.986C210.03 135.189 208.921 134.088 208.106 132.684C207.309 131.28 206.91 129.685 206.91 127.9C206.91 126.115 207.309 124.52 208.106 123.116C208.921 121.695 210.03 120.594 211.434 119.814C212.855 119.017 214.433 118.618 216.166 118.618C218.211 118.618 219.988 119.121 221.496 120.126C223.004 121.114 224.044 122.509 224.616 124.312H220.43ZM231.391 121.79V126.34H237.501V129.226H231.391V134.036H238.281V137H227.751V118.826H238.281V121.79H231.391ZM253.939 118.852V121.79H249.103V137H245.463V121.79H240.627V118.852H253.939ZM266.43 118.852V137H262.79V118.852H266.43ZM285.548 137H281.908L273.666 124.546V137H270.026V118.826H273.666L281.908 131.306V118.826H285.548V137ZM307.691 118.852V121.79H302.855V137H299.215V121.79H294.379V118.852H307.691ZM318.771 137.182C317.072 137.182 315.512 136.783 314.091 135.986C312.669 135.189 311.543 134.088 310.711 132.684C309.879 131.263 309.463 129.659 309.463 127.874C309.463 126.106 309.879 124.52 310.711 123.116C311.543 121.695 312.669 120.585 314.091 119.788C315.512 118.991 317.072 118.592 318.771 118.592C320.487 118.592 322.047 118.991 323.451 119.788C324.872 120.585 325.99 121.695 326.805 123.116C327.637 124.52 328.053 126.106 328.053 127.874C328.053 129.659 327.637 131.263 326.805 132.684C325.99 134.088 324.872 135.189 323.451 135.986C322.029 136.783 320.469 137.182 318.771 137.182ZM318.771 133.932C319.863 133.932 320.825 133.689 321.657 133.204C322.489 132.701 323.139 131.991 323.607 131.072C324.075 130.153 324.309 129.087 324.309 127.874C324.309 126.661 324.075 125.603 323.607 124.702C323.139 123.783 322.489 123.081 321.657 122.596C320.825 122.111 319.863 121.868 318.771 121.868C317.679 121.868 316.708 122.111 315.859 122.596C315.027 123.081 314.377 123.783 313.909 124.702C313.441 125.603 313.207 126.661 313.207 127.874C313.207 129.087 313.441 130.153 313.909 131.072C314.377 131.991 315.027 132.701 315.859 133.204C316.708 133.689 317.679 133.932 318.771 133.932ZM334.349 118.852V130.084C334.349 131.315 334.669 132.259 335.311 132.918C335.952 133.559 336.853 133.88 338.015 133.88C339.193 133.88 340.103 133.559 340.745 132.918C341.386 132.259 341.707 131.315 341.707 130.084V118.852H345.373V130.058C345.373 131.601 345.035 132.909 344.359 133.984C343.7 135.041 342.807 135.839 341.681 136.376C340.571 136.913 339.332 137.182 337.963 137.182C336.611 137.182 335.38 136.913 334.271 136.376C333.179 135.839 332.312 135.041 331.671 133.984C331.029 132.909 330.709 131.601 330.709 130.058V118.852H334.349ZM348.006 127.9C348.006 126.115 348.404 124.52 349.202 123.116C350.016 121.695 351.117 120.594 352.504 119.814C353.908 119.017 355.476 118.618 357.21 118.618C359.238 118.618 361.014 119.138 362.54 120.178C364.065 121.218 365.131 122.657 365.738 124.494H361.552C361.136 123.627 360.546 122.977 359.784 122.544C359.038 122.111 358.172 121.894 357.184 121.894C356.126 121.894 355.182 122.145 354.35 122.648C353.535 123.133 352.894 123.827 352.426 124.728C351.975 125.629 351.75 126.687 351.75 127.9C351.75 129.096 351.975 130.153 352.426 131.072C352.894 131.973 353.535 132.675 354.35 133.178C355.182 133.663 356.126 133.906 357.184 133.906C358.172 133.906 359.038 133.689 359.784 133.256C360.546 132.805 361.136 132.147 361.552 131.28H365.738C365.131 133.135 364.065 134.582 362.54 135.622C361.032 136.645 359.255 137.156 357.21 137.156C355.476 137.156 353.908 136.766 352.504 135.986C351.117 135.189 350.016 134.088 349.202 132.684C348.404 131.28 348.006 129.685 348.006 127.9ZM383.901 118.852V137H380.261V129.278H372.487V137H368.847V118.852H372.487V126.314H380.261V118.852H383.901Z" fill="white"/>
<defs>
<filter id="filter0_d_0_1" x="574.999" y="40.4521" width="449.807" height="154.218" filterUnits="userSpaceOnUse" color-interpolation-filters="sRGB">
<feFlood flood-opacity="0" result="BackgroundImageFix"/>
<feColorMatrix in="SourceAlpha" type="matrix" values="0 0 0 0 0 0 0 0 0 0 0 0 0 0 0 0 0 0 127 0" result="hardAlpha"/>
<feOffset dy="4"/>
<feGaussianBlur stdDeviation="2"/>
<feComposite in2="hardAlpha" operator="out"/>
<feColorMatrix type="matrix" values="0 0 0 0 0 0 0 0 0 0 0 0 0 0 0 0 0 0 0.25 0"/>
<feBlend mode="normal" in2="BackgroundImageFix" result="effect1_dropShadow_0_1"/>
<feBlend mode="normal" in="SourceGraphic" in2="effect1_dropShadow_0_1" result="shape"/>
</filter>
<linearGradient id="paint0_linear_0_1" x1="4.77456" y1="122.908" x2="1234.47" y2="203.26" gradientUnits="userSpaceOnUse">
<stop stop-color="#D9D9D9"/>
<stop offset="1" stop-color="#D9D9D9" stop-opacity="0.56"/>
</linearGradient>
<linearGradient id="paint1_linear_0_1" x1="896.84" y1="180.675" x2="862.831" y2="40.541" gradientUnits="userSpaceOnUse">
<stop stop-color="white" stop-opacity="0.35"/>
<stop offset="1" stop-color="#595959"/>
</linearGradient>
<linearGradient id="paint2_linear_0_1" x1="1018.5" y1="50" x2="1001.5" y2="108" gradientUnits="userSpaceOnUse">
<stop stop-color="#FFEC3E"/>
<stop offset="1" stop-color="#FFB23E"/>
</linearGradient>
<linearGradient id="paint3_linear_0_1" x1="880.673" y1="137" x2="865.153" y2="204.002" gradientUnits="userSpaceOnUse">
<stop stop-color="#FFEC3E"/>
<stop offset="1" stop-color="#FFB23E"/>
</linearGradient>
<linearGradient id="paint4_linear_0_1" x1="740.464" y1="19.7692" x2="661.826" y2="57.9896" gradientUnits="userSpaceOnUse">
<stop stop-color="#FFEC3E"/>
<stop offset="1" stop-color="#FFB23E"/>
</linearGradient>
</defs>
</svg>
