<svg width="1029" height="480" viewBox="0 0 1029 480" fill="none" xmlns="http://www.w3.org/2000/svg">
<path opacity="0.5" d="M333.803 426.543L309.974 407.899L306.203 409.509L316.604 433.882L300.876 440.594L273.323 376.027L299.72 364.762C304.81 362.59 309.512 361.635 313.827 361.896C318.204 362.13 321.948 363.431 325.061 365.8C328.147 368.107 330.502 371.161 332.124 374.963C333.956 379.255 334.365 383.611 333.351 388.03C332.399 392.423 329.863 396.332 325.743 399.757L351.554 418.968L333.803 426.543ZM301.454 398.379L311.203 394.219C314.085 392.989 315.93 391.368 316.739 389.356C317.609 387.318 317.494 385.011 316.395 382.436C315.348 379.983 313.788 378.366 311.715 377.583C309.703 376.775 307.256 376.986 304.374 378.215L294.625 382.376L301.454 398.379ZM354.428 356.312L360.001 369.373L381.064 360.385L386.245 372.526L365.182 381.514L371.226 395.678L395.048 385.513L400.425 398.113L360.876 414.99L333.323 350.423L372.873 333.546L378.25 346.147L354.428 356.312ZM441.161 328.978C442.757 332.718 443.364 336.518 442.981 340.378C442.573 344.177 440.996 347.785 438.251 351.203C435.505 354.622 431.496 357.456 426.223 359.706L416.473 363.867L426.364 387.045L410.636 393.756L383.084 329.189L408.561 318.317C413.712 316.119 418.445 315.151 422.76 315.411C427.075 315.672 430.789 316.986 433.902 319.355C437.014 321.723 439.434 324.931 441.161 328.978ZM419.689 347.708C422.694 346.426 424.631 344.766 425.501 342.727C426.371 340.689 426.256 338.382 425.157 335.807C424.058 333.232 422.472 331.553 420.399 330.771C418.325 329.988 415.786 330.238 412.782 331.52L404.228 335.17L411.136 351.358L419.689 347.708ZM500.958 355.213L477.129 336.57L473.358 338.179L483.759 362.553L468.031 369.264L440.479 304.697L466.876 293.433C471.965 291.261 476.667 290.306 480.983 290.566C485.359 290.801 489.104 292.102 492.216 294.47C495.303 296.777 497.657 299.832 499.28 303.634C501.111 307.926 501.52 312.281 500.507 316.7C499.554 321.093 497.018 325.002 492.899 328.427L518.71 347.638L500.958 355.213ZM468.609 327.05L478.359 322.89C481.24 321.66 483.086 320.039 483.894 318.027C484.764 315.989 484.649 313.682 483.55 311.107C482.504 308.654 480.944 307.036 478.87 306.254C476.858 305.446 474.411 305.656 471.529 306.886L461.78 311.046L468.609 327.05ZM558.842 331.274C552.771 333.865 546.59 334.835 540.297 334.187C534.065 333.512 528.374 331.301 523.224 327.555C518.109 323.722 514.204 318.647 511.509 312.332C508.814 306.016 507.865 299.716 508.663 293.432C509.522 287.122 511.864 281.484 515.688 276.518C519.574 271.525 524.552 267.734 530.622 265.144C536.693 262.553 542.844 261.595 549.075 262.271C555.368 262.919 561.028 265.143 566.056 268.941C571.145 272.713 575.037 277.757 577.732 284.073C580.427 290.388 581.389 296.719 580.617 303.064C579.819 309.348 577.508 314.973 573.684 319.939C569.86 324.906 564.912 328.684 558.842 331.274ZM552.719 316.926C557.87 314.728 561.245 311.258 562.846 306.516C564.508 301.748 564.135 296.543 561.728 290.902C559.294 285.199 555.795 281.329 551.228 279.291C546.697 277.166 541.856 277.202 536.706 279.4C531.494 281.624 528.044 285.089 526.356 289.796C524.729 294.477 525.145 299.699 527.605 305.463C530.038 311.166 533.52 315.08 538.052 317.205C542.618 319.243 547.507 319.15 552.719 316.926ZM596.974 237.917C603.78 235.013 610.303 233.824 616.544 234.35C622.784 234.876 628.331 237.003 633.184 240.731C638.071 244.371 641.876 249.38 644.597 255.757C647.292 262.073 648.276 268.285 647.548 274.394C646.882 280.477 644.55 285.966 640.55 290.862C636.612 295.732 631.271 299.606 624.526 302.484L600.336 312.806L572.784 248.239L596.974 237.917ZM617.705 289.303C623.653 286.765 627.589 283.165 629.514 278.502C631.438 273.839 631.131 268.534 628.593 262.586C626.055 256.639 622.424 252.716 617.7 250.817C612.976 248.919 607.64 249.239 601.692 251.777L594.242 254.956L610.255 292.483L617.705 289.303ZM655.062 213.129L671.546 251.759C673.195 255.622 675.414 258.19 678.205 259.464C680.995 260.738 684.23 260.59 687.909 259.02C691.588 257.45 693.964 255.204 695.036 252.282C696.109 249.36 695.821 245.967 694.173 242.104L677.688 203.474L693.416 196.763L709.861 235.301C712.321 241.064 713.175 246.462 712.423 251.495C711.671 256.527 709.642 260.944 706.336 264.747C703.091 268.524 698.924 271.498 693.834 273.67C688.745 275.841 683.758 276.81 678.874 276.574C674.025 276.252 669.585 274.595 665.554 271.603C661.497 268.551 658.239 264.142 655.779 258.379L639.334 219.841L655.062 213.129ZM715.53 225.38C712.809 219.003 711.768 212.742 712.408 206.598C713.022 200.392 715.192 194.863 718.92 190.011C722.683 185.071 727.692 181.266 733.947 178.598C741.611 175.327 749.036 174.551 756.22 176.269C763.404 177.987 769.407 181.949 774.23 188.154L756.938 195.533C754.499 193.384 751.783 192.115 748.79 191.725C745.858 191.309 742.89 191.742 739.885 193.024C735.041 195.091 731.837 198.452 730.271 203.107C728.706 207.761 729.127 212.909 731.534 218.55C733.941 224.192 737.366 228.057 741.81 230.148C746.254 232.238 750.898 232.25 755.742 230.183C758.746 228.9 761.113 227.057 762.841 224.652C764.63 222.222 765.593 219.383 765.73 216.135L783.021 208.756C784.165 216.532 782.871 223.607 779.141 229.983C775.384 236.297 769.674 241.09 762.009 244.36C755.755 247.029 749.556 248.044 743.411 247.404C737.302 246.676 731.809 244.418 726.93 240.629C722.051 236.84 718.251 231.757 715.53 225.38ZM795.625 168.043L801.198 181.103L822.261 172.116L827.442 184.256L806.379 193.244L812.423 207.409L836.245 197.243L841.622 209.844L802.072 226.721L774.52 162.154L814.07 145.277L819.447 157.877L795.625 168.043Z" fill="url(#paint0_linear_1506_47)"/>
<path opacity="0.3" d="M108.393 371.356C105.672 364.979 104.631 358.719 105.271 352.575C105.885 346.369 108.055 340.84 111.783 335.988C115.546 331.048 120.555 327.243 126.81 324.574C134.474 321.304 141.899 320.527 149.083 322.245C156.267 323.964 162.27 327.925 167.093 334.131L149.801 341.509C147.362 339.361 144.646 338.092 141.653 337.702C138.721 337.286 135.753 337.719 132.748 339.001C127.904 341.068 124.7 344.429 123.134 349.083C121.569 353.738 121.99 358.886 124.397 364.527C126.804 370.168 130.229 374.034 134.673 376.124C139.117 378.215 143.761 378.226 148.605 376.159C151.609 374.877 153.976 373.034 155.704 370.629C157.493 368.198 158.456 365.359 158.593 362.112L175.884 354.733C177.028 362.508 175.734 369.584 172.004 375.959C168.247 382.274 162.537 387.066 154.872 390.337C148.618 393.006 142.419 394.02 136.274 393.381C130.165 392.653 124.672 390.395 119.793 386.606C114.914 382.816 111.114 377.733 108.393 371.356ZM225.746 360.311C219.676 362.901 213.494 363.872 207.201 363.223C200.97 362.548 195.279 360.338 190.129 356.592C185.014 352.758 181.109 347.684 178.413 341.368C175.718 335.052 174.77 328.753 175.567 322.469C176.426 316.159 178.768 310.52 182.592 305.554C186.478 300.562 191.456 296.77 197.527 294.18C203.597 291.59 209.748 290.632 215.98 291.307C222.273 291.956 227.933 294.179 232.96 297.978C238.049 301.75 241.941 306.794 244.636 313.109C247.331 319.425 248.293 325.755 247.522 332.101C246.724 338.385 244.413 344.01 240.588 348.976C236.764 353.942 231.817 357.72 225.746 360.311ZM219.623 345.963C224.774 343.765 228.15 340.295 229.75 335.553C231.412 330.784 231.04 325.58 228.632 319.938C226.199 314.236 222.699 310.366 218.133 308.328C213.602 306.202 208.761 306.238 203.61 308.436C198.398 310.66 194.948 314.126 193.26 318.833C191.633 323.514 192.05 328.736 194.509 334.5C196.943 340.202 200.425 344.116 204.956 346.242C209.522 348.28 214.411 348.187 219.623 345.963ZM312.809 246.073L340.362 310.641L324.634 317.352L308.11 278.63L310.193 323.514L297.501 328.93L266.406 296.318L282.969 335.131L267.241 341.843L239.688 277.276L258.268 269.348L295.461 306.316L294.322 253.962L312.809 246.073ZM382.197 241.036C383.793 244.776 384.4 248.576 384.017 252.436C383.609 256.235 382.032 259.843 379.286 263.261C376.541 266.68 372.532 269.514 367.258 271.764L357.509 275.925L367.4 299.103L351.672 305.814L324.119 241.247L349.597 230.375C354.747 228.177 359.48 227.209 363.795 227.469C368.111 227.73 371.825 229.044 374.937 231.413C378.05 233.781 380.47 236.989 382.197 241.036ZM360.725 259.766C363.73 258.484 365.667 256.824 366.537 254.785C367.406 252.747 367.292 250.44 366.193 247.865C365.094 245.29 363.508 243.611 361.434 242.829C359.361 242.046 356.822 242.296 353.817 243.578L345.264 247.228L352.171 263.416L360.725 259.766ZM444.394 252.766L420.296 263.049L421.3 276.102L404.836 283.128L400.645 208.592L418.857 200.82L469.771 255.418L453.123 262.522L444.394 252.766ZM435.166 242.352L417.077 222.129L419.254 249.142L435.166 242.352ZM509.808 238.333L485.979 219.69L482.208 221.299L492.609 245.673L476.881 252.384L449.329 187.817L475.726 176.553C480.815 174.381 485.517 173.426 489.833 173.686C494.209 173.921 497.954 175.222 501.066 177.59C504.153 179.897 506.507 182.952 508.13 186.754C509.961 191.046 510.37 195.401 509.357 199.82C508.404 204.213 505.868 208.122 501.749 211.547L527.56 230.758L509.808 238.333ZM477.459 210.17L487.209 206.01C490.09 204.78 491.936 203.159 492.744 201.147C493.614 199.109 493.499 196.802 492.4 194.227C491.354 191.774 489.794 190.156 487.72 189.374C485.708 188.566 483.261 188.776 480.379 190.006L470.63 194.166L477.459 210.17ZM555.776 142.393L561.154 154.994L544.046 162.294L566.221 214.261L550.493 220.972L528.318 169.006L511.211 176.306L505.834 163.705L555.776 142.393ZM584.775 144.914L590.348 157.975L611.411 148.987L616.591 161.128L595.529 170.116L601.573 184.28L625.395 174.115L630.772 186.715L591.222 203.592L563.67 139.025L603.22 122.148L608.597 134.749L584.775 144.914Z" fill="url(#paint1_linear_1506_47)"/>
<path opacity="0.15" d="M19.5123 330.713C14.7909 332.727 10.2329 333.766 5.83844 333.83C1.44395 333.893 -2.52872 332.906 -6.07958 330.87C-9.56911 328.807 -12.2779 325.687 -14.206 321.508L2.53365 314.365C3.79937 316.651 5.41212 318.138 7.3719 318.824C9.30551 319.448 11.4067 319.276 13.6754 318.308C16.0055 317.314 17.6226 316.008 18.5268 314.39C19.4048 312.71 19.4382 310.92 18.6271 309.019C17.9467 307.425 16.8323 306.342 15.2838 305.771C13.7966 305.173 12.112 304.878 10.2299 304.883C8.40913 304.863 5.87464 305.038 2.62641 305.41C-2.09264 305.901 -6.04522 306.066 -9.23134 305.903C-12.4175 305.741 -15.4973 304.808 -18.471 303.105C-21.4446 301.402 -23.7949 298.527 -25.5218 294.481C-28.086 288.471 -27.9109 282.852 -24.9965 277.622C-22.1082 272.33 -17.169 268.193 -10.1789 265.21C-3.06606 262.175 3.39974 261.445 9.21854 263.021C15.0112 264.536 19.356 268.263 22.253 274.203L5.23741 281.464C4.22515 279.431 2.76529 278.133 0.857852 277.57C-1.07576 276.946 -3.14627 277.104 -5.3537 278.046C-7.25453 278.857 -8.56505 280.033 -9.28527 281.572C-10.0316 283.05 -9.99927 284.74 -9.18814 286.641C-8.29851 288.726 -6.62404 289.932 -4.16475 290.26C-1.70545 290.587 1.89681 290.536 6.64203 290.106C11.4134 289.737 15.3615 289.647 18.4863 289.835C21.6724 289.998 24.7392 290.9 27.6867 292.541C30.6341 294.183 32.9321 296.935 34.5805 300.798C36.1504 304.477 36.626 308.225 36.0073 312.04C35.4499 315.83 33.7724 319.373 30.9748 322.668C28.1772 325.964 24.3564 328.646 19.5123 330.713ZM40.638 244.612L68.1903 309.18L52.4624 315.891L24.9101 251.324L40.638 244.612ZM125.157 208.546L152.709 273.113L136.981 279.825L120.458 241.103L122.541 285.987L109.848 291.403L78.7532 258.79L95.316 297.604L79.5881 304.316L52.0358 239.749L70.6149 231.821L107.809 268.789L106.669 216.435L125.157 208.546ZM194.544 203.509C196.14 207.249 196.747 211.049 196.365 214.909C195.956 218.707 194.379 222.316 191.634 225.734C188.888 229.153 184.879 231.987 179.606 234.237L169.856 238.398L179.747 261.576L164.019 268.287L136.467 203.72L161.944 192.848C167.095 190.65 171.828 189.682 176.143 189.942C180.458 190.203 184.172 191.517 187.285 193.886C190.397 196.254 192.817 199.462 194.544 203.509ZM173.072 222.239C176.077 220.957 178.014 219.296 178.884 217.258C179.754 215.22 179.639 212.913 178.54 210.338C177.441 207.763 175.855 206.084 173.782 205.301C171.708 204.519 169.169 204.769 166.165 206.051L157.611 209.701L164.519 225.889L173.072 222.239ZM231.961 224.943L252.564 216.151L257.745 228.292L221.414 243.795L193.862 179.228L209.59 172.517L231.961 224.943ZM253.422 153.812L280.974 218.379L265.247 225.091L237.694 160.524L253.422 153.812ZM306.853 131.012L312.23 143.613L285.925 154.838L291.734 168.45L311.416 160.051L316.636 172.284L296.954 180.683L308.1 206.804L292.372 213.516L264.82 148.949L306.853 131.012ZM330.847 120.773L358.399 185.34L342.672 192.052L315.119 127.485L330.847 120.773ZM353.315 149.239C350.593 142.862 349.553 136.602 350.192 130.457C350.806 124.252 352.977 118.723 356.705 113.87C360.468 108.93 365.477 105.126 371.731 102.457C379.396 99.1864 386.82 98.4102 394.004 100.128C401.189 101.847 407.192 105.808 412.014 112.013L394.723 119.392C392.284 117.244 389.568 115.975 386.575 115.585C383.643 115.169 380.674 115.602 377.67 116.884C372.826 118.951 369.621 122.312 368.056 126.966C366.49 131.621 366.911 136.769 369.318 142.41C371.726 148.051 375.151 151.917 379.595 154.007C384.038 156.098 388.682 156.109 393.526 154.042C396.531 152.76 398.897 150.917 400.625 148.512C402.415 146.081 403.378 143.242 403.514 139.995L420.806 132.616C421.949 140.391 420.656 147.467 416.925 153.842C413.169 160.157 407.458 164.949 399.794 168.22C393.539 170.889 387.34 171.903 381.196 171.263C375.087 170.536 369.593 168.278 364.714 164.489C359.836 160.699 356.036 155.616 353.315 149.239ZM475.184 122.024L451.086 132.307L452.09 145.36L435.626 152.386L431.436 77.8495L449.647 70.0783L500.561 124.676L483.913 131.78L475.184 122.024ZM465.956 111.61L447.867 91.3866L450.044 118.4L465.956 111.61Z" fill="url(#paint2_linear_1506_47)"/>
<defs>
<linearGradient id="paint0_linear_1506_47" x1="281.436" y1="410.835" x2="859.795" y2="274.413" gradientUnits="userSpaceOnUse">
<stop stop-color="white" stop-opacity="0.37"/>
<stop offset="0.770619" stop-color="#FFEC3E" stop-opacity="0.34"/>
<stop offset="1" stop-color="#FFB23E" stop-opacity="0.13"/>
</linearGradient>
<linearGradient id="paint1_linear_1506_47" x1="105.436" y1="372.835" x2="520.173" y2="254.036" gradientUnits="userSpaceOnUse">
<stop stop-color="white" stop-opacity="0.37"/>
<stop offset="0.770619" stop-color="#FFEC3E" stop-opacity="0.34"/>
<stop offset="1" stop-color="#FFB23E" stop-opacity="0.13"/>
</linearGradient>
<linearGradient id="paint2_linear_1506_47" x1="-23.5638" y1="310.28" x2="430.336" y2="185.832" gradientUnits="userSpaceOnUse">
<stop stop-color="white" stop-opacity="0.37"/>
<stop offset="0.770619" stop-color="#FFEC3E" stop-opacity="0.34"/>
<stop offset="1" stop-color="#FFB23E" stop-opacity="0.13"/>
</linearGradient>
</defs>
</svg>
